<?xml version="1.0" encoding="UTF-8" ?>
<!DOCTYPE svg PUBLIC "-//W3C//DTD SVG 1.1//EN" "http://www.w3.org/Graphics/SVG/1.1/DTD/svg11.dtd">
<svg width="1000pt" height="1000pt" viewBox="0 0 1000 1000" version="1.1" xmlns="http://www.w3.org/2000/svg">
<path fill="#ffffff" d=" M 0.00 0.00 L 1000.00 0.00 L 1000.00 1000.00 L 0.00 1000.00 L 0.00 0.00 Z" />
<path fill="#9d8213" d=" M 475.20 66.25 C 483.58 60.17 494.17 55.97 504.66 57.46 C 512.19 59.35 521.02 61.67 526.09 68.02 C 515.76 64.04 504.72 61.09 493.58 62.34 C 487.00 62.35 481.35 66.11 475.02 67.18 L 475.20 66.25 Z" />
<path fill="#a48815" d=" M 493.58 62.34 C 504.72 61.09 515.76 64.04 526.09 68.02 C 532.09 70.75 535.70 77.06 540.76 81.24 C 540.84 81.67 541.00 82.53 541.09 82.97 C 529.68 74.35 516.92 65.85 502.02 65.94 C 489.59 64.80 477.52 69.61 467.39 76.43 C 464.49 78.15 462.30 81.17 458.96 82.07 C 461.00 79.42 462.64 76.29 465.70 74.63 C 468.89 72.32 470.95 68.12 475.02 67.18 C 481.35 66.11 487.00 62.35 493.58 62.34 Z" />
<path fill="#aa8e16" d=" M 467.39 76.43 C 477.52 69.61 489.59 64.80 502.02 65.94 C 516.92 65.85 529.68 74.35 541.09 82.97 C 547.83 89.57 552.53 98.33 557.64 106.32 C 558.84 108.51 560.79 110.41 561.06 113.01 C 558.16 111.18 556.95 107.72 554.83 105.18 C 544.21 90.13 530.54 75.61 512.10 70.89 C 504.87 69.64 497.34 67.95 490.10 70.21 C 474.63 73.48 461.53 83.71 451.58 95.62 C 446.56 101.04 443.02 107.69 437.99 113.05 C 438.29 109.97 440.70 107.68 442.08 105.06 C 447.37 97.21 452.10 88.50 458.96 82.07 C 462.30 81.17 464.49 78.15 467.39 76.43 Z" />
<path fill="#af9418" d=" M 490.10 70.21 C 497.34 67.95 504.87 69.64 512.10 70.89 C 530.54 75.61 544.21 90.13 554.83 105.18 C 556.95 107.72 558.16 111.18 561.06 113.01 C 572.16 131.16 579.94 151.29 587.84 171.09 C 601.31 207.02 613.26 243.66 622.06 281.00 C 617.71 270.68 614.92 259.22 611.61 248.32 C 603.17 219.93 594.03 191.69 582.69 164.30 C 571.86 137.86 559.41 111.37 539.77 90.22 C 531.44 82.28 521.53 75.26 510.04 72.94 C 492.44 68.61 474.11 76.28 461.56 88.52 C 447.58 101.48 437.70 118.18 428.98 134.99 C 409.34 172.46 395.79 212.67 382.54 252.72 C 378.39 264.00 376.53 276.30 370.93 286.99 C 370.93 285.73 371.08 284.50 371.40 283.30 C 387.59 229.29 405.12 175.29 430.99 125.00 C 433.15 120.95 434.66 116.35 437.99 113.05 C 443.02 107.69 446.56 101.04 451.58 95.62 C 461.53 83.71 474.63 73.48 490.10 70.21 Z" />
<path fill="#b29719" d=" M 461.56 88.52 C 474.11 76.28 492.44 68.61 510.04 72.94 C 521.53 75.26 531.44 82.28 539.77 90.22 C 559.41 111.37 571.86 137.86 582.69 164.30 C 594.03 191.69 603.17 219.93 611.61 248.32 C 614.92 259.22 617.71 270.68 622.06 281.00 C 624.50 286.11 625.83 292.54 626.67 298.34 C 625.46 296.75 624.45 295.01 623.82 293.12 C 617.86 278.25 614.30 262.60 609.61 247.32 C 601.62 219.86 592.39 192.74 581.81 166.16 C 572.06 142.74 561.48 119.35 545.64 99.32 C 537.24 90.24 528.28 80.82 516.33 76.64 C 498.94 69.79 478.95 75.31 465.32 87.35 C 443.84 106.33 431.21 132.78 419.37 158.33 C 402.84 195.50 389.89 234.14 378.01 273.00 C 374.31 283.38 372.10 294.72 365.96 303.98 C 367.63 298.40 368.11 292.15 370.93 286.99 C 376.53 276.30 378.39 264.00 382.54 252.72 C 395.79 212.67 409.34 172.46 428.98 134.99 C 437.70 118.18 447.58 101.48 461.56 88.52 Z" />
<path fill="#b69a1a" d=" M 465.32 87.35 C 478.95 75.31 498.94 69.79 516.33 76.64 C 528.28 80.82 537.24 90.24 545.64 99.32 C 561.48 119.35 572.06 142.74 581.81 166.16 C 592.39 192.74 601.62 219.86 609.61 247.32 C 614.30 262.60 617.86 278.25 623.82 293.12 C 624.45 295.01 625.46 296.75 626.67 298.34 C 628.24 301.28 628.86 304.68 629.04 307.99 C 623.50 300.33 621.07 290.88 617.80 282.13 C 604.97 238.01 592.26 193.65 573.45 151.63 C 565.01 132.69 555.57 113.90 541.89 98.13 C 530.92 84.52 513.99 74.27 495.99 75.95 C 486.03 76.34 477.00 81.46 469.05 87.07 C 455.63 97.57 446.09 111.91 437.40 126.36 C 408.73 178.64 391.70 236.15 373.62 292.66 C 370.61 300.06 368.51 308.09 363.28 314.30 C 363.72 310.83 364.26 307.01 365.96 303.98 C 372.10 294.72 374.31 283.38 378.01 273.00 C 389.89 234.14 402.84 195.50 419.37 158.33 C 431.21 132.78 443.84 106.33 465.32 87.35 Z" />
<path fill="#b99e1b" d=" M 469.05 87.07 C 477.00 81.46 486.03 76.34 495.99 75.95 C 513.99 74.27 530.92 84.52 541.89 98.13 C 555.57 113.90 565.01 132.69 573.45 151.63 C 592.26 193.65 604.97 238.01 617.80 282.13 C 621.07 290.88 623.50 300.33 629.04 307.99 C 630.44 309.67 630.54 312.19 630.70 314.31 C 623.72 305.55 620.54 294.51 616.82 284.13 C 601.06 231.23 586.28 177.52 560.61 128.35 C 549.62 109.39 536.67 88.90 515.37 80.53 C 502.74 75.72 487.75 77.08 476.23 84.23 C 452.21 99.16 439.32 125.61 427.00 150.00 C 416.66 172.06 407.80 194.81 399.76 217.80 C 389.58 244.97 382.67 273.21 372.29 300.30 C 369.22 306.71 367.40 314.17 362.22 319.26 C 361.71 317.49 362.33 315.79 363.28 314.30 C 368.51 308.09 370.61 300.06 373.62 292.66 C 391.70 236.15 408.73 178.64 437.40 126.36 C 446.09 111.91 455.63 97.57 469.05 87.07 Z" />
<path fill="#bca11c" d=" M 476.23 84.23 C 487.75 77.08 502.74 75.72 515.37 80.53 C 536.67 88.90 549.62 109.39 560.61 128.35 C 586.28 177.52 601.06 231.23 616.82 284.13 C 620.54 294.51 623.72 305.55 630.70 314.31 C 631.19 315.93 631.86 317.55 631.77 319.28 C 627.49 315.50 625.55 309.94 622.97 305.01 C 616.62 291.96 613.26 277.80 609.01 264.00 C 601.18 236.22 592.63 208.65 582.28 181.70 C 572.18 155.54 561.17 129.31 544.41 106.62 C 537.04 96.00 526.80 87.08 514.71 82.32 C 503.82 77.90 491.39 78.68 480.98 83.97 C 461.96 92.95 450.00 111.28 439.93 128.98 C 428.00 150.03 418.59 172.37 409.89 194.90 C 402.44 215.40 394.53 235.77 388.67 256.79 C 380.96 278.89 375.87 302.24 363.44 322.40 C 362.58 323.85 361.39 325.06 360.18 326.24 C 360.00 323.83 360.54 321.06 362.22 319.26 C 367.40 314.17 369.22 306.71 372.29 300.30 C 382.67 273.21 389.58 244.97 399.76 217.80 C 407.80 194.81 416.66 172.06 427.00 150.00 C 439.32 125.61 452.21 99.16 476.23 84.23 Z" />
<path fill="#c0a41d" d=" M 480.98 83.97 C 491.39 78.68 503.82 77.90 514.71 82.32 C 526.80 87.08 537.04 96.00 544.41 106.62 C 561.17 129.31 572.18 155.54 582.28 181.70 C 592.63 208.65 601.18 236.22 609.01 264.00 C 613.26 277.80 616.62 291.96 622.97 305.01 C 625.55 309.94 627.49 315.50 631.77 319.28 C 632.85 320.99 633.17 322.97 633.02 324.97 C 625.14 317.02 621.00 306.27 616.96 296.02 C 608.01 271.14 602.41 245.18 593.59 220.25 C 584.04 190.77 573.42 161.50 559.02 133.99 C 549.23 115.31 537.51 95.76 517.95 86.05 C 513.09 84.38 508.38 81.38 503.02 81.98 C 484.24 80.10 467.60 92.63 456.84 106.82 C 432.71 139.12 418.62 177.30 404.71 214.77 C 398.06 233.70 391.68 252.70 385.87 271.90 C 380.20 290.94 374.15 310.33 363.04 327.02 C 362.04 328.66 360.59 329.97 358.98 330.99 C 359.08 329.36 358.55 327.27 360.18 326.24 C 361.39 325.06 362.58 323.85 363.44 322.40 C 375.87 302.24 380.96 278.89 388.67 256.79 C 394.53 235.77 402.44 215.40 409.89 194.90 C 418.59 172.37 428.00 150.03 439.93 128.98 C 450.00 111.28 461.96 92.95 480.98 83.97 Z" />
<path fill="#c3a81e" d=" M 456.84 106.82 C 467.60 92.63 484.24 80.10 503.02 81.98 C 508.38 81.38 513.09 84.38 517.95 86.05 C 537.51 95.76 549.23 115.31 559.02 133.99 C 573.42 161.50 584.04 190.77 593.59 220.25 C 602.41 245.18 608.01 271.14 616.96 296.02 C 621.00 306.27 625.14 317.02 633.02 324.97 C 634.48 326.29 634.13 328.63 634.61 330.42 C 619.90 316.65 614.79 296.17 608.44 277.76 C 594.95 229.43 579.98 181.23 557.97 136.01 C 550.54 122.33 542.35 108.80 531.11 97.88 C 519.49 87.23 502.03 80.43 486.64 86.59 C 475.17 90.29 466.78 99.22 458.85 107.82 C 443.99 127.26 433.09 149.31 423.84 171.86 C 412.32 198.62 403.01 226.25 393.81 253.87 C 384.21 282.50 378.70 314.51 357.23 337.26 C 357.61 335.21 357.42 332.45 358.98 330.99 C 360.59 329.97 362.04 328.66 363.04 327.02 C 374.15 310.33 380.20 290.94 385.87 271.90 C 391.68 252.70 398.06 233.70 404.71 214.77 C 418.62 177.30 432.71 139.12 456.84 106.82 Z" />
<path fill="#c8ac1f" d=" M 486.64 86.59 C 502.03 80.43 519.49 87.23 531.11 97.88 C 542.35 108.80 550.54 122.33 557.97 136.01 C 579.98 181.23 594.95 229.43 608.44 277.76 C 614.79 296.17 619.90 316.65 634.61 330.42 C 635.21 331.95 635.79 333.51 635.97 335.17 C 628.51 330.52 624.56 322.21 620.14 314.92 C 608.10 290.44 602.91 263.43 594.40 237.67 C 587.61 214.82 579.64 192.31 570.81 170.16 C 561.53 148.19 552.09 125.79 536.74 107.26 C 527.21 96.86 515.08 86.28 500.02 86.93 C 493.17 85.91 486.76 88.94 480.76 91.76 C 468.17 99.13 458.42 110.59 451.03 123.01 C 437.96 143.47 428.34 165.85 419.45 188.36 C 408.50 215.67 399.34 243.66 390.64 271.74 C 384.27 292.14 378.36 313.25 365.97 330.98 C 362.87 334.53 360.45 338.95 356.13 341.20 C 356.00 339.77 356.59 338.48 357.23 337.26 C 378.70 314.51 384.21 282.50 393.81 253.87 C 403.01 226.25 412.32 198.62 423.84 171.86 C 433.09 149.31 443.99 127.26 458.85 107.82 C 466.78 99.22 475.17 90.29 486.64 86.59 Z" />
<path fill="#cbb020" d=" M 480.76 91.76 C 486.76 88.94 493.17 85.91 500.02 86.93 C 515.08 86.28 527.21 96.86 536.74 107.26 C 552.09 125.79 561.53 148.19 570.81 170.16 C 579.64 192.31 587.61 214.82 594.40 237.67 C 602.91 263.43 608.10 290.44 620.14 314.92 C 624.56 322.21 628.51 330.52 635.97 335.17 C 635.98 335.87 636.00 337.27 636.01 337.98 C 632.46 337.26 630.73 333.89 628.60 331.35 C 614.86 314.99 609.09 294.01 602.96 274.02 C 595.20 246.10 586.87 218.32 576.79 191.14 C 567.49 166.25 557.42 141.42 543.04 118.97 C 535.13 107.51 525.21 96.28 511.91 91.11 C 497.56 85.86 481.29 91.34 470.72 101.71 C 453.07 117.76 443.50 140.12 433.04 161.04 C 424.54 180.63 416.45 200.42 409.55 220.64 C 399.07 248.85 391.45 277.98 381.30 306.30 C 377.48 315.66 373.14 324.89 366.93 332.94 C 363.38 337.03 360.77 342.68 355.19 344.27 C 355.45 343.23 355.76 342.20 356.13 341.20 C 360.45 338.95 362.87 334.53 365.97 330.98 C 378.36 313.25 384.27 292.14 390.64 271.74 C 399.34 243.66 408.50 215.67 419.45 188.36 C 428.34 165.85 437.96 143.47 451.03 123.01 C 458.42 110.59 468.17 99.13 480.76 91.76 Z" />
<path fill="#cfb321" d=" M 470.72 101.71 C 481.29 91.34 497.56 85.86 511.91 91.11 C 525.21 96.28 535.13 107.51 543.04 118.97 C 557.42 141.42 567.49 166.25 576.79 191.14 C 586.87 218.32 595.20 246.10 602.96 274.02 C 609.09 294.01 614.86 314.99 628.60 331.35 C 630.73 333.89 632.46 337.26 636.01 337.98 C 637.89 338.40 636.62 341.05 636.71 342.36 C 619.86 329.69 611.81 309.16 605.43 289.76 C 591.21 240.68 577.30 191.16 555.01 144.99 C 547.09 128.32 537.64 111.67 523.03 99.96 C 513.59 93.25 501.53 89.54 490.08 93.09 C 472.08 98.49 460.38 114.83 451.30 130.31 C 441.31 147.09 433.42 165.00 426.11 183.08 C 414.99 210.47 405.16 238.39 396.60 266.67 C 389.70 287.71 384.43 309.68 372.75 328.77 C 367.71 336.11 362.50 344.16 354.41 348.45 C 354.53 347.03 354.87 345.64 355.19 344.27 C 360.77 342.68 363.38 337.03 366.93 332.94 C 373.14 324.89 377.48 315.66 381.30 306.30 C 391.45 277.98 399.07 248.85 409.55 220.64 C 416.45 200.42 424.54 180.63 433.04 161.04 C 443.50 140.12 453.07 117.76 470.72 101.71 Z" />
<path fill="#d2b722" d=" M 490.08 93.09 C 501.53 89.54 513.59 93.25 523.03 99.96 C 537.64 111.67 547.09 128.32 555.01 144.99 C 577.30 191.16 591.21 240.68 605.43 289.76 C 611.81 309.16 619.86 329.69 636.71 342.36 C 637.67 343.05 638.64 343.72 639.63 344.39 C 650.34 353.13 664.20 356.58 677.60 358.47 C 695.02 359.60 712.59 361.27 730.00 359.15 C 759.60 358.53 789.16 359.56 818.70 361.32 C 846.72 364.07 875.80 365.73 901.97 377.09 C 917.55 383.18 931.92 398.15 930.06 416.01 C 930.36 432.41 919.30 445.54 909.66 457.68 C 872.34 498.24 826.26 529.15 781.00 559.99 C 761.92 573.38 740.47 587.77 732.78 610.93 C 732.45 612.24 732.14 613.54 731.83 614.86 C 726.17 630.84 728.17 648.27 732.62 664.32 C 740.22 690.17 750.43 715.18 757.87 741.10 C 769.14 778.57 779.43 816.73 782.28 855.90 C 783.90 868.88 781.99 882.47 776.29 894.30 C 770.89 905.56 759.04 913.47 746.61 914.50 C 732.53 916.57 718.86 911.21 706.13 905.86 C 679.94 893.93 655.59 878.36 632.00 862.00 C 607.71 845.61 585.11 826.90 561.83 809.14 C 549.09 799.79 535.48 790.97 520.03 786.96 C 515.69 786.32 511.29 784.42 506.93 785.68 C 505.60 785.32 504.28 785.38 502.99 785.81 C 482.04 785.41 463.40 797.24 446.89 808.85 C 399.91 844.20 352.51 879.96 298.96 904.89 C 282.74 911.81 264.74 919.17 247.02 913.93 C 235.39 911.21 226.46 901.76 222.01 890.98 C 218.07 882.89 218.24 873.73 217.26 864.99 C 217.97 837.73 225.12 811.20 231.83 784.94 C 241.86 748.93 254.91 713.90 267.58 678.76 C 272.23 661.43 277.08 642.48 271.10 624.87 C 272.00 622.87 271.26 622.15 270.15 620.91 C 267.79 609.79 260.15 600.54 252.28 592.72 C 239.80 579.20 223.73 569.85 209.20 558.80 C 167.74 529.63 127.05 498.82 92.30 461.72 C 80.76 448.13 69.17 432.62 68.99 414.00 C 70.00 402.65 75.53 391.59 84.97 384.96 C 95.07 377.79 106.93 373.49 119.00 371.03 C 144.63 365.55 170.91 364.52 196.99 363.00 C 229.97 362.76 262.97 363.02 295.89 364.71 C 315.26 364.36 336.33 362.41 352.34 350.31 C 353.08 349.74 353.77 349.13 354.41 348.45 C 362.50 344.16 367.71 336.11 372.75 328.77 C 384.43 309.68 389.70 287.71 396.60 266.67 C 405.16 238.39 414.99 210.47 426.11 183.08 C 433.42 165.00 441.31 147.09 451.30 130.31 C 460.38 114.83 472.08 98.49 490.08 93.09 Z" />
<path fill="#d5ba23" d=" M 493.34 94.42 C 503.00 92.57 513.12 95.23 521.00 101.00 C 533.10 110.55 541.94 123.43 549.00 137.00 C 565.58 169.44 577.68 203.95 588.41 238.68 C 596.33 263.40 601.69 289.03 612.13 312.89 C 618.94 329.33 631.06 343.77 646.99 352.01 C 656.72 356.36 667.04 359.46 677.71 360.35 C 693.10 361.24 708.61 363.41 723.99 361.06 C 755.96 360.60 787.86 361.19 819.72 363.36 C 847.44 365.90 876.10 367.96 901.98 379.07 C 913.30 384.28 923.82 393.47 927.16 405.90 C 932.20 426.27 918.94 444.73 905.83 458.81 C 898.16 468.76 888.13 476.49 879.02 485.03 C 844.32 515.00 806.46 541.01 768.33 566.35 C 758.15 574.79 746.83 582.26 739.55 593.60 C 732.09 602.94 728.04 614.59 726.53 626.34 C 723.90 644.96 729.54 663.37 735.39 680.79 C 752.75 730.26 769.13 780.45 777.44 832.35 C 779.74 851.72 783.71 872.62 774.91 890.91 C 771.87 898.28 766.36 904.68 759.02 908.02 C 747.37 914.24 733.17 913.04 720.99 909.03 C 696.73 900.95 674.72 887.42 653.32 873.65 C 623.87 854.61 596.04 833.24 568.61 811.43 C 552.85 799.53 536.11 786.99 516.09 783.77 C 502.25 781.44 487.84 783.22 475.10 789.10 C 451.70 799.59 432.80 817.39 411.92 831.88 C 391.57 847.12 370.51 861.45 348.91 874.89 C 328.21 887.64 306.95 899.71 284.09 908.17 C 271.61 912.00 257.50 915.26 244.92 910.12 C 234.92 906.63 227.24 898.00 223.87 888.08 C 217.82 870.17 220.21 850.88 223.50 832.65 C 231.91 787.61 246.36 744.05 262.23 701.18 C 269.92 681.66 276.84 661.28 276.83 640.07 C 275.59 625.53 270.82 610.98 261.29 599.73 C 246.98 581.05 226.04 569.46 207.65 555.38 C 175.32 532.82 143.92 508.77 114.99 482.00 C 107.93 475.77 101.15 469.11 95.19 461.81 C 82.97 448.16 70.38 432.05 71.51 412.66 C 72.63 396.99 85.09 384.78 99.08 379.13 C 117.18 371.49 137.05 369.93 156.35 367.57 C 197.43 363.78 238.81 364.57 280.00 366.02 C 300.73 366.07 322.46 367.52 341.86 358.81 C 363.29 350.18 377.16 329.78 384.65 308.69 C 396.04 278.08 403.92 246.30 415.57 215.77 C 422.31 196.90 429.85 178.31 438.01 160.00 C 448.46 139.21 458.13 116.70 477.00 102.00 C 481.98 98.62 487.51 95.99 493.34 94.42 Z" />
<path fill="#d8bd24" d=" M 495.33 96.39 C 508.69 94.14 520.73 102.29 529.62 111.34 C 541.96 125.67 550.29 142.88 557.96 160.01 C 572.01 193.15 583.46 227.30 593.24 261.90 C 598.29 279.11 602.70 296.57 609.93 313.03 C 617.38 330.74 630.38 346.72 648.08 354.88 C 661.28 360.50 675.72 362.83 690.00 363.12 C 700.91 364.58 712.05 364.37 722.99 363.08 C 759.02 362.58 795.02 363.38 830.93 366.23 C 854.55 369.07 879.13 370.89 901.00 381.00 C 913.33 386.35 924.30 397.16 925.97 411.03 C 927.52 426.33 919.08 440.43 909.62 451.66 C 889.87 475.31 865.50 494.45 841.17 513.15 C 816.62 531.51 791.13 548.57 765.78 565.78 C 755.09 574.68 743.23 582.77 736.00 595.00 C 725.45 609.70 722.38 628.66 724.42 646.37 C 728.17 669.76 737.30 691.74 744.91 714.03 C 757.96 755.05 770.70 796.53 776.42 839.35 C 778.35 856.88 780.77 875.90 772.06 892.06 C 766.27 904.18 752.16 911.04 739.00 910.04 C 728.80 910.62 719.38 906.37 710.03 902.93 C 665.60 883.03 626.31 853.60 587.81 824.19 C 568.66 809.56 550.50 792.38 527.25 784.53 C 519.89 781.17 511.72 781.73 504.00 780.11 C 490.98 780.89 478.22 784.59 466.67 790.63 C 456.30 796.72 446.63 803.90 436.83 810.84 C 409.62 831.58 382.14 852.02 353.00 870.00 C 329.47 884.71 305.28 899.21 278.69 907.64 C 266.16 911.00 251.25 912.99 239.99 905.02 C 226.68 897.67 222.86 880.95 222.02 867.01 C 222.08 839.73 229.66 813.25 235.96 786.93 C 240.83 770.07 246.03 753.40 251.58 736.77 C 261.29 706.05 276.91 676.67 278.98 644.00 C 279.27 623.31 269.73 603.28 254.77 589.23 C 246.74 580.42 236.36 574.31 227.21 566.78 C 191.85 542.67 157.26 517.18 125.27 488.74 C 108.47 473.56 91.35 457.87 80.01 438.00 C 73.41 427.08 71.20 412.68 77.05 401.01 C 82.70 389.02 95.24 382.72 107.03 378.10 C 135.28 370.07 164.87 368.83 193.99 366.98 C 220.99 367.41 248.06 366.02 274.99 368.02 C 295.91 367.46 317.80 370.33 337.79 362.62 C 352.23 358.26 364.32 348.15 373.09 336.08 C 387.52 314.34 393.47 288.63 401.43 264.24 C 412.57 228.15 425.30 192.40 441.10 158.04 C 448.84 141.62 457.19 125.08 469.56 111.61 C 476.21 104.07 485.20 97.91 495.33 96.39 Z" />
<path fill="#dbc025" d=" M 492.33 99.38 C 504.39 96.74 516.55 101.48 525.02 109.99 C 542.90 127.94 552.16 152.15 561.85 175.09 C 577.40 213.44 588.71 253.28 600.03 293.04 C 606.40 311.42 613.46 330.38 627.89 344.10 C 634.62 349.61 641.59 355.35 650.04 357.95 C 664.14 364.51 679.88 364.19 694.99 365.94 C 721.25 366.43 747.44 363.76 773.72 365.32 C 783.51 367.04 793.53 365.05 803.35 366.41 C 831.02 368.08 858.90 370.19 885.82 377.30 C 895.05 380.28 904.03 384.30 911.80 390.21 C 921.54 398.87 926.80 413.43 922.01 426.00 C 916.61 442.66 903.93 455.71 891.75 467.75 C 867.85 491.53 840.30 511.32 812.91 530.88 C 797.42 541.81 781.78 552.53 765.93 562.93 C 749.79 575.35 732.90 589.11 726.10 609.07 C 717.35 632.86 723.13 658.79 731.39 681.79 C 747.40 727.25 762.40 773.20 771.40 820.67 C 773.98 836.66 776.70 852.75 776.03 869.01 C 775.34 883.62 768.34 899.13 754.32 905.35 C 746.11 908.39 736.77 909.18 728.35 906.52 C 711.41 902.87 696.08 894.18 680.96 886.03 C 649.59 867.90 620.29 846.51 591.64 824.39 C 571.93 809.45 553.44 792.00 530.02 782.95 C 513.66 777.04 495.25 776.32 478.91 782.86 C 463.02 788.19 449.99 799.05 436.38 808.43 C 401.10 835.71 364.72 861.78 325.91 883.86 C 313.80 890.93 301.17 897.09 288.09 902.16 C 277.76 906.83 266.27 908.67 254.98 908.03 C 242.52 906.38 231.54 897.32 227.56 885.34 C 221.35 867.03 225.07 847.60 228.21 829.07 C 236.23 788.70 249.01 749.62 263.01 711.00 C 269.77 692.03 278.24 673.30 280.11 653.01 C 283.40 633.15 277.55 611.90 264.41 596.63 C 250.77 579.29 231.46 568.02 214.06 554.95 C 180.21 531.68 147.57 506.47 117.23 478.77 C 103.94 465.33 89.31 452.33 80.99 435.01 C 75.60 424.56 73.61 411.41 79.95 400.95 C 85.28 389.78 97.12 384.47 108.03 380.12 C 127.90 374.11 148.74 372.17 169.35 370.59 C 199.81 368.14 230.44 369.10 261.00 369.12 C 272.56 371.27 284.49 368.64 296.00 370.90 C 302.28 369.80 308.65 370.07 315.00 369.92 C 326.33 368.48 337.71 366.09 348.01 361.01 C 362.49 353.75 373.70 341.33 381.02 327.01 C 393.32 303.42 398.96 277.26 407.40 252.22 C 420.62 212.21 434.77 172.21 455.21 135.21 C 463.99 120.41 475.06 104.69 492.33 99.38 Z" />
<path fill="#dec326" d=" M 495.34 101.47 C 510.55 98.74 523.46 109.78 532.08 120.93 C 553.78 153.63 566.07 191.36 578.60 228.22 C 588.14 256.24 594.11 285.44 605.06 312.98 C 613.16 333.81 628.57 353.02 650.20 360.63 C 676.00 370.04 704.06 367.64 731.01 368.01 C 743.26 366.78 755.74 366.15 767.99 367.94 C 794.87 367.57 821.68 369.21 848.35 372.42 C 869.91 375.54 893.02 378.41 910.67 392.37 C 921.21 401.08 923.95 417.08 918.43 429.34 C 911.69 445.66 898.64 458.13 886.26 470.25 C 850.96 503.04 811.05 530.40 771.00 557.01 C 752.62 569.92 733.31 584.25 724.83 605.90 C 720.41 614.96 720.36 625.22 719.02 635.01 C 720.21 663.69 732.69 689.98 741.13 716.95 C 751.27 747.18 760.29 777.85 766.83 809.09 C 770.59 827.82 774.28 846.82 773.98 866.01 C 773.28 879.73 768.71 895.96 754.99 901.98 C 744.47 907.61 731.59 905.87 720.67 902.43 C 694.31 892.61 670.25 877.63 647.00 862.00 C 621.55 845.55 597.92 826.54 574.02 807.97 C 558.03 795.00 540.67 782.44 520.29 777.69 C 509.88 775.93 499.03 774.75 488.69 777.54 C 466.90 782.40 449.11 796.50 431.61 809.56 C 387.52 842.52 342.71 875.60 292.28 898.27 C 278.61 903.98 262.75 909.13 248.12 903.85 C 233.18 898.22 226.20 881.10 226.97 866.01 C 225.94 846.90 230.50 828.19 234.66 809.70 C 243.96 770.95 256.93 733.21 270.87 695.92 C 278.59 676.27 284.43 655.30 282.93 633.99 C 281.45 620.09 275.59 606.97 266.98 596.03 C 255.43 582.11 240.90 571.13 226.09 560.87 C 201.62 544.29 177.86 526.68 154.73 508.29 C 139.90 495.82 124.62 483.83 111.25 469.75 C 99.97 458.86 88.95 447.11 82.34 432.69 C 77.92 423.14 76.29 411.42 82.06 402.04 C 91.35 386.05 110.72 380.71 127.66 377.59 C 170.08 370.57 213.13 370.63 256.00 371.10 C 267.24 373.07 278.75 370.95 289.99 372.96 C 308.52 373.04 327.67 372.31 344.99 364.95 C 360.98 358.06 374.01 345.39 382.03 330.01 C 391.67 312.43 396.84 292.92 402.86 273.92 C 414.39 236.66 426.95 199.61 443.02 164.01 C 450.12 149.20 457.17 134.24 466.97 120.98 C 474.32 112.10 483.46 103.27 495.34 101.47 Z" />
<path fill="#e4c827" d=" M 491.69 105.65 C 499.10 102.75 506.87 104.84 513.73 108.13 C 512.34 111.98 519.14 112.58 520.77 115.25 C 534.19 128.17 542.00 145.64 549.64 162.33 C 557.97 181.04 564.73 200.40 571.42 219.74 C 581.81 249.73 588.73 280.84 599.42 310.72 C 606.63 330.56 618.63 350.04 637.75 360.25 C 658.53 371.37 682.93 372.45 706.00 372.01 C 741.30 372.40 776.66 370.94 811.90 373.22 C 839.14 375.73 867.27 376.81 892.97 387.08 C 904.47 391.75 916.05 401.63 916.01 415.01 C 916.98 429.46 907.23 441.21 898.60 451.65 C 872.19 480.30 840.47 503.30 808.92 525.90 C 785.95 543.01 760.25 556.57 739.21 576.20 C 726.78 588.68 717.33 604.90 715.62 622.68 C 711.84 648.74 721.91 673.75 730.14 697.90 C 740.09 725.17 748.39 752.99 755.95 781.01 C 762.56 806.60 767.98 832.60 769.89 859.01 C 770.34 873.25 766.28 889.46 753.24 897.25 C 741.46 903.82 727.12 900.63 715.30 895.71 C 694.58 887.74 675.89 875.58 657.25 863.73 C 625.78 843.43 596.58 819.90 567.01 796.99 C 555.95 788.51 544.17 780.71 531.02 775.95 C 513.94 770.05 494.93 769.44 477.89 775.86 C 451.75 785.47 431.46 805.32 408.95 820.97 C 383.86 839.95 357.72 857.57 330.69 873.69 C 313.51 883.46 296.07 893.23 277.13 899.18 C 267.65 901.56 256.95 902.65 248.03 897.91 C 238.00 893.58 233.31 882.53 231.55 872.39 C 229.78 858.91 231.72 845.35 234.22 832.11 C 241.70 793.49 253.58 755.90 266.90 718.96 C 274.74 696.36 285.19 674.24 287.25 650.12 C 289.70 635.36 286.00 620.43 279.95 607.02 C 273.58 595.54 265.08 585.39 255.08 576.91 C 231.38 558.36 205.77 542.46 182.00 524.00 C 161.05 508.13 140.63 491.51 121.24 473.76 C 107.23 459.34 90.51 445.32 84.68 425.32 C 81.35 416.78 84.36 407.47 89.22 400.22 C 102.73 384.87 124.32 382.17 143.41 379.58 C 191.37 373.87 239.85 374.01 287.99 377.00 C 310.72 377.42 334.93 376.75 355.26 365.28 C 364.78 359.63 373.72 352.44 379.41 342.80 C 379.40 342.52 379.37 341.96 379.36 341.68 C 395.91 313.49 403.07 280.87 413.03 249.96 C 426.27 211.91 439.58 173.57 459.21 138.21 C 467.24 125.30 476.37 110.56 491.69 105.65 Z" />
<path fill="#e6cb28" d=" M 497.32 108.40 C 509.41 107.26 519.47 115.57 526.60 124.36 C 539.74 142.04 548.00 162.62 556.16 182.91 C 571.48 221.70 582.24 262.03 594.12 301.97 C 601.08 321.91 610.06 342.54 627.23 355.76 C 645.31 369.83 668.81 373.04 690.99 374.02 C 742.81 374.54 794.83 371.80 846.35 378.41 C 865.92 381.35 887.10 383.23 903.42 395.52 C 911.97 401.35 915.77 412.76 913.65 422.71 C 908.38 440.25 895.11 453.89 882.07 466.07 C 843.47 501.66 799.08 530.23 755.99 559.98 C 745.38 568.32 734.45 576.58 726.83 587.88 C 715.08 604.16 711.38 625.02 713.28 644.72 C 717.98 677.18 733.01 706.83 741.57 738.24 C 753.76 777.59 764.72 817.76 767.96 859.00 C 767.88 870.84 766.13 884.41 756.28 892.28 C 748.13 900.12 735.28 900.37 725.00 897.01 C 709.70 892.70 695.75 884.79 681.96 877.07 C 640.87 852.54 602.90 823.29 565.66 793.36 C 554.35 785.96 543.35 777.76 530.31 773.65 C 528.79 772.96 525.63 772.84 526.15 770.49 C 529.13 770.01 531.90 771.48 534.65 772.42 C 558.13 781.67 576.45 799.66 596.31 814.64 C 628.24 838.91 660.66 862.87 696.00 881.99 C 710.01 888.99 724.71 897.30 740.95 895.96 C 754.05 894.75 762.83 882.67 764.45 870.39 C 766.90 848.29 761.94 826.34 757.20 804.88 C 750.80 775.33 742.00 746.37 732.40 717.73 C 724.92 692.94 713.12 669.11 710.95 643.00 C 708.11 624.56 712.51 605.13 722.41 589.37 C 738.86 565.53 764.56 550.92 788.01 535.01 C 819.37 513.86 850.09 491.58 878.24 466.24 C 890.49 453.98 904.51 442.10 909.99 425.02 C 913.56 414.87 909.30 403.36 901.13 396.87 C 884.98 385.68 864.93 383.45 845.97 381.02 C 796.89 375.41 747.33 375.00 698.02 376.87 C 685.58 375.48 672.88 376.59 660.66 373.41 C 645.75 370.16 630.94 363.90 620.14 352.87 C 607.66 341.56 599.92 326.04 594.60 310.27 C 584.79 282.29 578.41 253.23 568.59 225.25 C 558.41 194.82 547.73 164.24 531.67 136.32 C 525.72 125.64 517.20 115.47 505.01 112.00 C 498.64 109.51 491.92 112.39 486.27 115.26 C 475.97 120.84 470.19 131.57 464.11 141.07 C 440.03 185.60 424.30 233.95 409.24 282.08 C 403.71 300.77 398.03 319.62 388.91 336.93 C 379.40 353.92 364.52 368.42 345.90 374.88 C 322.12 382.79 296.67 380.99 272.01 380.86 C 257.41 378.89 242.60 381.10 228.00 379.14 C 198.65 379.59 169.19 380.29 140.02 384.07 C 127.38 386.28 114.09 388.12 102.92 394.89 C 95.15 398.93 88.81 406.94 89.00 416.00 C 87.62 425.84 93.13 434.86 98.35 442.67 C 111.38 459.47 127.14 473.96 143.20 487.79 C 173.85 513.96 206.94 537.02 239.94 560.07 C 259.12 573.59 278.03 589.52 287.35 611.68 C 292.62 626.76 293.24 643.20 290.81 658.90 C 286.64 682.48 276.24 704.22 268.76 726.80 C 254.14 768.93 239.98 811.80 235.42 856.38 C 234.32 869.31 236.99 885.56 249.04 892.95 C 258.66 898.50 270.56 896.72 280.65 893.58 C 309.80 882.79 336.03 865.78 362.01 849.01 C 391.25 830.00 418.60 808.32 446.60 787.56 C 448.43 786.17 450.54 785.19 452.77 784.64 C 458.60 784.71 449.62 787.99 449.00 789.00 C 426.95 804.46 406.30 821.95 383.79 836.79 C 363.17 851.51 341.98 865.51 319.78 877.76 C 305.60 885.42 291.29 893.26 275.66 897.56 C 266.93 899.33 257.01 900.85 248.98 896.02 C 240.19 891.47 234.76 882.03 233.54 872.35 C 231.10 851.26 236.45 830.42 241.03 810.00 C 251.09 765.76 267.57 723.46 282.60 680.78 C 288.00 663.96 291.76 645.73 288.80 628.08 C 286.57 614.06 280.05 600.92 270.84 590.17 C 258.28 574.12 240.03 564.12 224.08 551.89 C 188.33 527.59 153.86 501.20 121.99 472.00 C 114.05 465.62 107.79 457.53 100.92 450.08 C 91.78 438.65 82.03 424.43 86.96 408.97 C 92.45 394.43 107.97 387.99 122.07 385.04 C 153.31 378.71 185.28 377.87 217.00 376.99 C 248.39 375.98 279.57 379.79 310.93 378.80 C 336.85 377.63 364.76 368.12 379.81 345.81 C 390.94 331.21 396.56 313.46 402.42 296.32 C 413.44 259.68 424.90 223.09 439.55 187.66 C 448.58 165.95 457.63 143.85 472.02 125.03 C 478.29 117.01 486.67 109.31 497.32 108.40 Z" />
<path fill="#e1c627" d=" M 513.73 108.13 C 528.17 115.05 535.82 130.41 543.01 143.99 C 565.54 188.74 579.44 236.99 593.17 284.96 C 598.84 303.51 604.59 322.74 616.59 338.37 C 624.93 349.39 636.11 358.02 649.14 362.81 C 660.83 367.62 673.59 368.35 685.99 369.94 C 732.57 370.66 779.30 368.28 825.72 372.32 C 850.83 374.94 877.04 376.57 900.05 387.95 C 909.99 393.03 917.64 402.78 918.97 414.04 C 919.09 427.46 911.78 439.45 903.30 449.29 C 887.37 468.06 868.32 483.84 849.00 499.00 C 832.46 511.94 815.58 524.49 797.99 535.99 C 775.37 552.42 749.66 565.76 732.17 588.18 C 720.45 602.64 716.33 621.75 717.02 640.01 C 718.69 660.03 725.53 679.07 732.42 697.77 C 748.42 745.07 763.88 793.00 770.34 842.71 C 772.15 858.41 773.71 875.77 764.78 889.79 C 758.29 900.84 744.09 904.63 732.07 902.84 C 713.69 899.43 697.26 889.74 681.08 880.86 C 655.17 865.74 630.38 848.72 606.61 830.44 C 584.59 814.48 564.64 795.51 540.70 782.34 C 531.24 778.24 521.40 774.50 510.99 774.07 C 494.30 771.81 477.51 776.98 463.06 785.09 C 440.32 798.39 420.64 816.11 398.94 830.96 C 372.55 850.03 345.50 868.34 316.78 883.77 C 301.05 891.94 284.94 901.13 266.98 902.97 C 257.03 905.41 245.69 901.74 238.70 894.30 C 230.69 886.11 229.06 873.97 228.95 863.01 C 228.53 851.99 230.58 841.10 232.36 830.29 C 241.26 788.57 253.55 747.69 268.85 707.91 C 275.40 689.31 283.59 670.92 284.92 650.99 C 287.88 633.32 282.64 614.87 273.03 599.98 C 263.13 584.97 248.41 574.39 234.21 563.78 C 196.75 538.10 159.83 511.36 125.98 481.02 C 111.32 467.02 95.70 453.10 86.04 434.98 C 81.11 425.55 78.55 413.78 83.95 403.98 C 88.89 393.50 99.78 388.18 110.02 384.09 C 127.00 378.89 144.76 377.28 162.34 375.55 C 190.19 373.70 218.05 372.43 246.00 373.10 C 257.90 375.18 270.09 372.80 281.99 374.94 C 309.11 375.74 339.40 375.22 361.96 357.93 C 367.49 353.20 373.20 348.28 377.26 342.14 C 377.78 342.03 378.83 341.79 379.36 341.68 C 379.37 341.96 379.40 342.52 379.41 342.80 C 373.72 352.44 364.78 359.63 355.26 365.28 C 334.93 376.75 310.72 377.42 287.99 377.00 C 239.85 374.01 191.37 373.87 143.41 379.58 C 124.32 382.17 102.73 384.87 89.22 400.22 C 84.36 407.47 81.35 416.78 84.68 425.32 C 90.51 445.32 107.23 459.34 121.24 473.76 C 140.63 491.51 161.05 508.13 182.00 524.00 C 205.77 542.46 231.38 558.36 255.08 576.91 C 265.08 585.39 273.58 595.54 279.95 607.02 C 286.00 620.43 289.70 635.36 287.25 650.12 C 285.19 674.24 274.74 696.36 266.90 718.96 C 253.58 755.90 241.70 793.49 234.22 832.11 C 231.72 845.35 229.78 858.91 231.55 872.39 C 233.31 882.53 238.00 893.58 248.03 897.91 C 256.95 902.65 267.65 901.56 277.13 899.18 C 296.07 893.23 313.51 883.46 330.69 873.69 C 357.72 857.57 383.86 839.95 408.95 820.97 C 431.46 805.32 451.75 785.47 477.89 775.86 C 494.93 769.44 513.94 770.05 531.02 775.95 C 544.17 780.71 555.95 788.51 567.01 796.99 C 596.58 819.90 625.78 843.43 657.25 863.73 C 675.89 875.58 694.58 887.74 715.30 895.71 C 727.12 900.63 741.46 903.82 753.24 897.25 C 766.28 889.46 770.34 873.25 769.89 859.01 C 767.98 832.60 762.56 806.60 755.95 781.01 C 748.39 752.99 740.09 725.17 730.14 697.90 C 721.91 673.75 711.84 648.74 715.62 622.68 C 717.33 604.90 726.78 588.68 739.21 576.20 C 760.25 556.57 785.95 543.01 808.92 525.90 C 840.47 503.30 872.19 480.30 898.60 451.65 C 907.23 441.21 916.98 429.46 916.01 415.01 C 916.05 401.63 904.47 391.75 892.97 387.08 C 867.27 376.81 839.14 375.73 811.90 373.22 C 776.66 370.94 741.30 372.40 706.00 372.01 C 682.93 372.45 658.53 371.37 637.75 360.25 C 618.63 350.04 606.63 330.56 599.42 310.72 C 588.73 280.84 581.81 249.73 571.42 219.74 C 564.73 200.40 557.97 181.04 549.64 162.33 C 542.00 145.64 534.19 128.17 520.77 115.25 C 519.14 112.58 512.34 111.98 513.73 108.13 Z" />
<path fill="#e9ce29" d=" M 486.27 115.26 C 491.92 112.39 498.64 109.51 505.01 112.00 C 517.20 115.47 525.72 125.64 531.67 136.32 C 547.73 164.24 558.41 194.82 568.59 225.25 C 578.41 253.23 584.79 282.29 594.60 310.27 C 599.92 326.04 607.66 341.56 620.14 352.87 C 630.94 363.90 645.75 370.16 660.66 373.41 C 672.88 376.59 685.58 375.48 698.02 376.87 C 747.33 375.00 796.89 375.41 845.97 381.02 C 864.93 383.45 884.98 385.68 901.13 396.87 C 909.30 403.36 913.56 414.87 909.99 425.02 C 904.51 442.10 890.49 453.98 878.24 466.24 C 850.09 491.58 819.37 513.86 788.01 535.01 C 764.56 550.92 738.86 565.53 722.41 589.37 C 712.51 605.13 708.11 624.56 710.95 643.00 C 713.12 669.11 724.92 692.94 732.40 717.73 C 742.00 746.37 750.80 775.33 757.20 804.88 C 761.94 826.34 766.90 848.29 764.45 870.39 C 762.83 882.67 754.05 894.75 740.95 895.96 C 724.71 897.30 710.01 888.99 696.00 881.99 C 660.66 862.87 628.24 838.91 596.31 814.64 C 576.45 799.66 558.13 781.67 534.65 772.42 C 531.90 771.48 529.13 770.01 526.15 770.49 C 501.02 763.39 473.93 770.15 452.77 784.64 C 450.54 785.19 448.43 786.17 446.60 787.56 C 418.60 808.32 391.25 830.00 362.01 849.01 C 336.03 865.78 309.80 882.79 280.65 893.58 C 270.56 896.72 258.66 898.50 249.04 892.95 C 236.99 885.56 234.32 869.31 235.42 856.38 C 239.98 811.80 254.14 768.93 268.76 726.80 C 276.24 704.22 286.64 682.48 290.81 658.90 C 293.24 643.20 292.62 626.76 287.35 611.68 C 278.03 589.52 259.12 573.59 239.94 560.07 C 206.94 537.02 173.85 513.96 143.20 487.79 C 127.14 473.96 111.38 459.47 98.35 442.67 C 93.13 434.86 87.62 425.84 89.00 416.00 C 88.81 406.94 95.15 398.93 102.92 394.89 C 114.09 388.12 127.38 386.28 140.02 384.07 C 169.19 380.29 198.65 379.59 228.00 379.14 C 242.60 381.10 257.41 378.89 272.01 380.86 C 296.67 380.99 322.12 382.79 345.90 374.88 C 364.52 368.42 379.40 353.92 388.91 336.93 C 398.03 319.62 403.71 300.77 409.24 282.08 C 424.30 233.95 440.03 185.60 464.11 141.07 C 470.19 131.57 475.97 120.84 486.27 115.26 Z" />
<path fill="#ecd12a" d=" M 494.33 115.39 C 506.53 112.15 517.01 121.19 524.09 129.91 C 541.72 156.29 551.57 186.75 562.59 216.22 C 573.57 248.37 581.63 281.46 592.38 313.69 C 599.05 332.35 609.46 350.39 625.80 362.18 C 644.98 376.27 669.86 378.85 692.93 379.21 C 702.61 381.52 712.26 378.12 722.00 378.98 C 767.55 378.76 813.23 378.56 858.36 385.43 C 872.76 388.21 888.07 390.67 899.83 400.17 C 907.88 407.14 910.21 419.64 905.01 429.01 C 896.57 447.36 880.10 460.17 865.64 473.60 C 845.29 490.80 823.86 506.77 802.00 522.00 C 778.28 538.87 752.66 553.39 731.21 573.20 C 723.95 581.90 716.38 590.80 712.61 601.67 C 705.92 620.21 705.47 640.64 710.48 659.65 C 715.11 679.54 722.67 698.55 729.46 717.76 C 743.28 761.60 757.27 805.99 761.95 851.99 C 763.35 865.83 761.40 884.40 746.96 890.95 C 742.15 892.46 737.11 893.70 732.07 892.85 C 717.29 890.29 704.26 882.51 690.99 875.97 C 650.98 853.20 614.27 825.24 578.29 796.67 C 563.78 784.82 548.32 773.24 530.24 767.56 C 521.88 764.29 512.78 764.27 503.99 763.02 C 480.85 763.79 459.01 773.88 441.07 788.10 C 394.77 822.94 348.32 858.53 295.99 883.98 C 282.23 890.07 266.50 897.42 251.65 890.40 C 240.05 884.05 238.11 869.31 238.30 857.28 C 240.36 829.18 248.42 802.00 255.94 774.98 C 265.24 743.05 277.57 712.07 288.66 680.71 C 293.96 661.65 298.39 641.29 293.46 621.66 C 290.43 604.61 279.71 590.23 267.79 578.21 C 247.16 559.69 223.16 545.55 200.92 529.12 C 183.37 516.10 165.73 503.10 149.24 488.77 C 131.82 474.33 114.69 459.19 100.83 441.19 C 95.30 432.42 89.07 421.79 93.15 411.13 C 96.80 398.33 110.92 393.73 122.34 390.45 C 151.82 384.68 182.00 382.71 212.00 382.91 C 218.39 381.92 224.93 381.48 231.35 382.41 C 245.83 384.22 260.55 381.58 274.99 383.94 C 300.32 383.82 327.19 386.59 351.08 376.13 C 371.52 368.44 386.28 350.62 395.34 331.30 C 404.35 311.29 409.69 289.99 416.43 269.24 C 426.30 236.99 437.66 205.09 451.15 174.12 C 457.49 159.91 463.85 145.60 472.75 132.76 C 478.34 125.47 485.14 117.88 494.33 115.39 Z" />
<path fill="#f1d62b" d=" M 476.07 136.04 C 482.65 127.28 492.87 117.33 504.87 121.21 C 519.72 126.88 527.48 142.36 533.76 155.94 C 533.58 156.99 533.38 158.06 533.88 159.06 C 553.99 202.88 567.49 249.31 580.46 295.65 C 586.45 315.17 592.23 335.55 605.17 351.82 C 616.43 367.01 633.70 377.08 652.07 380.98 C 669.05 385.08 686.62 385.32 704.00 385.00 C 747.80 385.35 791.78 383.44 835.38 388.52 C 850.36 389.70 865.26 392.13 879.70 396.34 C 887.86 399.20 896.40 403.93 899.41 412.62 C 901.73 420.22 899.29 427.83 895.38 434.35 C 885.31 449.06 871.43 460.46 858.17 472.16 C 829.49 495.92 799.24 517.73 768.00 538.00 C 746.35 552.56 722.32 566.96 709.98 590.98 C 702.14 606.01 700.07 623.27 701.04 640.02 C 703.40 665.53 713.66 689.26 721.67 713.33 C 726.04 723.23 727.83 733.97 731.93 743.98 C 742.42 780.69 753.80 817.67 756.05 855.99 C 757.08 864.22 754.73 872.41 750.25 879.27 C 742.83 887.81 730.03 887.44 720.33 883.61 C 696.67 874.08 675.23 859.96 653.98 846.04 C 633.96 832.23 614.50 817.63 595.36 802.62 C 575.16 787.10 555.94 768.49 530.97 761.08 C 515.43 756.39 498.44 755.23 482.70 759.67 C 460.16 764.97 441.75 779.96 423.68 793.64 C 404.22 808.68 384.22 823.01 364.02 837.02 C 360.65 838.99 357.65 841.73 353.91 843.02 C 356.86 839.58 359.84 836.02 363.98 833.97 C 375.89 825.99 387.24 817.20 399.09 809.12 C 422.79 792.45 443.98 771.11 471.35 760.42 C 493.20 752.08 518.14 751.93 539.71 761.28 C 551.45 765.61 561.41 773.39 571.61 780.42 C 601.36 804.22 631.23 827.94 663.06 848.94 C 683.24 861.64 703.29 875.35 726.19 882.73 C 730.38 882.92 734.68 883.36 738.90 882.89 C 747.29 880.16 753.10 871.77 753.14 863.00 C 754.93 854.01 752.87 844.95 751.95 835.99 C 743.01 783.96 726.63 733.64 708.85 684.07 C 701.65 664.64 697.60 643.83 698.17 623.09 C 700.25 605.68 705.93 588.04 717.58 574.61 C 726.69 562.94 739.08 554.54 750.95 545.97 C 785.95 523.08 820.85 499.83 852.94 472.93 C 865.00 463.09 876.76 452.76 887.03 441.03 C 893.68 433.48 899.49 423.76 896.69 413.28 C 891.42 401.41 877.80 398.20 866.38 395.55 C 829.67 388.70 792.19 388.07 755.00 386.98 C 724.32 386.00 693.53 390.42 662.99 385.97 C 645.46 383.25 627.95 377.37 614.24 365.76 C 601.87 354.72 592.81 340.25 587.32 324.68 C 576.93 297.12 571.08 268.11 561.57 240.28 C 555.44 220.11 548.45 200.15 540.42 180.64 C 538.53 177.45 538.53 172.60 535.15 170.64 C 530.01 157.89 523.62 145.67 515.19 134.78 C 509.92 129.34 501.56 124.60 493.90 127.88 C 483.23 131.86 478.25 142.47 472.39 151.35 C 461.61 171.49 453.12 192.74 445.11 214.10 C 433.66 244.89 423.78 276.24 414.68 307.80 C 409.47 322.58 404.69 337.96 395.90 351.06 C 388.07 361.02 380.22 371.57 368.93 377.90 C 348.73 390.47 324.25 392.22 301.08 393.04 C 301.29 392.49 301.70 391.38 301.91 390.83 C 324.09 389.88 347.45 387.84 366.77 375.76 C 379.97 367.84 390.23 355.73 397.00 342.00 C 404.62 327.49 409.47 311.72 414.11 296.06 C 414.54 295.04 414.38 293.96 414.19 292.91 C 417.12 276.95 424.00 261.79 428.12 246.03 C 434.67 228.01 440.78 209.81 448.15 192.09 C 456.37 172.93 464.19 153.30 476.07 136.04 Z" />
<path fill="#f4d92c" d=" M 493.90 127.88 C 501.56 124.60 509.92 129.34 515.19 134.78 C 523.62 145.67 530.01 157.89 535.15 170.64 C 534.90 171.23 534.42 172.42 534.18 173.02 C 552.35 214.95 564.61 259.09 576.94 303.01 C 582.99 322.43 589.34 342.50 602.57 358.40 C 618.10 378.20 643.49 387.24 667.89 389.24 C 683.55 389.97 699.35 392.33 715.00 390.15 C 763.95 389.68 813.26 389.25 861.69 397.36 C 872.50 399.55 884.44 402.26 891.67 411.33 C 894.05 415.67 895.05 421.26 892.87 425.87 C 888.14 438.15 877.67 446.59 868.76 455.76 C 830.84 489.69 788.46 518.13 745.97 545.95 C 728.56 557.85 711.66 572.27 703.02 592.01 C 698.78 600.75 696.40 610.28 695.84 619.98 C 691.75 652.17 705.70 682.52 715.67 712.33 C 720.32 722.96 722.36 734.45 726.68 745.20 C 736.78 779.71 746.87 814.49 750.59 850.38 C 751.81 858.40 750.34 867.00 745.83 873.82 C 740.24 881.33 729.90 880.89 721.89 878.16 C 713.65 875.21 705.50 871.78 698.19 866.93 C 698.39 866.41 698.79 865.38 698.99 864.86 C 710.43 868.28 720.33 877.09 733.01 876.06 C 737.98 876.07 741.72 872.25 744.74 868.71 C 749.81 854.59 746.13 839.41 743.78 825.11 C 736.72 789.75 726.77 755.03 715.14 720.93 C 708.15 698.92 698.67 677.65 694.20 654.90 C 690.84 634.25 690.12 612.18 698.55 592.63 C 702.43 582.37 709.21 573.52 716.24 565.23 C 733.79 547.81 755.55 535.61 776.02 522.03 C 803.89 502.89 831.50 483.23 857.18 461.18 C 868.09 451.46 880.04 442.26 887.34 429.33 C 889.15 425.24 891.20 420.37 888.93 416.07 C 884.37 405.19 871.24 403.14 861.12 400.79 C 814.51 393.04 767.09 392.77 719.98 393.07 C 705.68 394.03 691.28 394.72 676.99 393.23 C 654.51 392.92 631.29 387.61 613.03 373.96 C 604.08 366.56 596.00 357.89 590.38 347.66 C 577.95 323.96 572.38 297.58 564.76 272.13 C 553.64 233.62 541.42 195.20 524.04 158.98 C 519.37 149.67 514.23 139.39 504.67 134.26 C 493.31 130.53 484.97 140.24 479.96 148.98 C 466.61 172.21 456.75 197.21 447.45 222.29 C 437.69 248.89 429.20 275.94 421.13 303.10 C 414.62 324.61 407.87 346.87 393.98 364.96 C 383.47 378.56 368.40 388.15 352.01 393.04 C 320.82 401.81 287.91 398.35 256.01 397.01 C 217.85 397.03 179.46 395.73 141.60 401.50 C 132.22 403.71 121.80 404.70 114.18 411.18 C 108.23 416.55 109.22 425.60 113.04 431.95 C 120.58 443.79 131.31 452.99 141.35 462.62 C 166.08 484.50 192.12 504.90 219.21 523.79 C 242.19 541.09 268.16 554.83 288.17 575.82 C 305.93 594.93 312.80 622.07 310.59 647.62 C 309.22 667.58 302.34 686.59 295.18 705.11 C 277.84 752.74 259.95 800.84 253.55 851.40 C 251.90 860.24 254.43 871.62 263.31 875.66 C 270.43 878.52 278.21 875.65 284.98 872.96 C 312.61 861.19 337.30 843.76 362.37 827.48 C 362.98 827.36 364.21 827.11 364.82 826.99 C 365.35 827.34 366.42 828.03 366.95 828.37 C 341.45 846.04 315.20 862.98 286.90 875.86 C 281.48 878.28 275.78 880.02 269.88 880.78 C 261.26 881.28 251.90 875.05 250.95 866.04 C 248.50 855.86 250.55 845.40 252.37 835.31 C 261.60 787.01 278.19 740.59 295.55 694.72 C 305.76 667.39 312.40 636.54 302.85 608.05 C 296.39 590.37 284.40 574.83 269.33 563.62 C 257.74 554.34 245.23 546.34 232.96 538.02 C 192.87 509.37 152.54 480.37 118.28 444.73 C 111.25 436.88 103.50 426.91 106.59 415.63 C 108.23 411.63 110.64 407.47 114.97 405.97 C 124.56 400.35 135.88 399.15 146.69 397.69 C 167.03 395.27 187.51 393.74 208.00 393.99 C 231.33 394.19 254.69 393.38 277.99 394.98 C 291.38 394.34 304.64 396.65 317.99 395.05 C 349.13 394.55 382.71 381.15 397.77 352.33 C 397.31 352.02 396.37 351.38 395.90 351.06 C 404.69 337.96 409.47 322.58 414.68 307.80 C 423.78 276.24 433.66 244.89 445.11 214.10 C 453.12 192.74 461.61 171.49 472.39 151.35 C 478.25 142.47 483.23 131.86 493.90 127.88 Z" />
<path fill="#f7db2d" d=" M 479.96 148.98 C 484.97 140.24 493.31 130.53 504.67 134.26 C 514.23 139.39 519.37 149.67 524.04 158.98 C 541.42 195.20 553.64 233.62 564.76 272.13 C 572.38 297.58 577.95 323.96 590.38 347.66 C 596.00 357.89 604.08 366.56 613.03 373.96 C 631.29 387.61 654.51 392.92 676.99 393.23 C 691.28 394.72 705.68 394.03 719.98 393.07 C 767.09 392.77 814.51 393.04 861.12 400.79 C 871.24 403.14 884.37 405.19 888.93 416.07 C 891.20 420.37 889.15 425.24 887.34 429.33 C 880.04 442.26 868.09 451.46 857.18 461.18 C 831.50 483.23 803.89 502.89 776.02 522.03 C 755.55 535.61 733.79 547.81 716.24 565.23 C 709.21 573.52 702.43 582.37 698.55 592.63 C 690.12 612.18 690.84 634.25 694.20 654.90 C 698.67 677.65 708.15 698.92 715.14 720.93 C 726.77 755.03 736.72 789.75 743.78 825.11 C 746.13 839.41 749.81 854.59 744.74 868.71 C 741.72 872.25 737.98 876.07 733.01 876.06 C 720.33 877.09 710.43 868.28 698.99 864.86 C 667.96 848.49 640.12 826.81 612.01 805.99 C 590.73 790.29 571.63 771.25 547.98 759.05 C 527.34 749.08 503.14 746.08 480.87 751.75 C 458.21 757.52 438.93 771.46 421.16 786.13 C 402.44 799.83 384.48 814.63 364.82 826.99 C 364.21 827.11 362.98 827.36 362.37 827.48 C 337.30 843.76 312.61 861.19 284.98 872.96 C 278.21 875.65 270.43 878.52 263.31 875.66 C 254.43 871.62 251.90 860.24 253.55 851.40 C 259.95 800.84 277.84 752.74 295.18 705.11 C 302.34 686.59 309.22 667.58 310.59 647.62 C 312.80 622.07 305.93 594.93 288.17 575.82 C 268.16 554.83 242.19 541.09 219.21 523.79 C 192.12 504.90 166.08 484.50 141.35 462.62 C 131.31 452.99 120.58 443.79 113.04 431.95 C 109.22 425.60 108.23 416.55 114.18 411.18 C 121.80 404.70 132.22 403.71 141.60 401.50 C 179.46 395.73 217.85 397.03 256.01 397.01 C 287.91 398.35 320.82 401.81 352.01 393.04 C 368.40 388.15 383.47 378.56 393.98 364.96 C 407.87 346.87 414.62 324.61 421.13 303.10 C 429.20 275.94 437.69 248.89 447.45 222.29 C 456.75 197.21 466.61 172.21 479.96 148.98 Z" />
<path fill="#f9de2e" d=" M 497.32 141.38 C 501.77 140.05 505.22 143.37 508.90 145.10 C 521.86 161.81 528.72 182.20 536.42 201.67 C 549.92 237.03 559.80 273.57 569.94 310.02 C 575.52 328.41 581.36 347.33 593.06 362.96 C 601.00 374.44 612.73 382.86 625.33 388.61 C 640.27 395.19 656.85 397.10 673.00 398.01 C 689.25 399.59 705.71 399.46 722.00 398.08 C 757.02 397.55 792.02 398.32 826.93 401.28 C 842.20 402.97 857.87 403.96 872.33 409.62 C 877.21 411.92 883.24 415.57 882.00 422.00 C 882.98 427.79 878.25 432.02 875.31 436.29 C 871.34 442.67 864.58 446.19 859.76 451.76 C 826.62 480.95 790.19 506.15 753.32 530.35 C 734.24 542.29 714.76 554.96 701.58 573.63 C 688.67 592.26 684.95 615.69 686.25 637.93 C 687.62 655.39 692.47 672.38 698.41 688.78 C 715.54 737.31 732.24 786.33 740.44 837.34 C 740.61 844.52 743.49 851.96 741.01 859.00 C 739.78 863.58 736.79 868.84 731.66 869.60 C 721.88 871.21 713.41 864.92 705.02 860.96 C 659.13 835.05 617.71 802.16 576.81 769.18 C 563.28 758.28 547.87 749.45 531.02 744.94 C 509.56 740.10 486.54 740.67 465.99 748.99 C 441.60 758.26 422.90 777.08 402.00 792.00 C 374.34 813.08 345.69 832.83 316.01 850.97 C 304.35 857.60 292.73 864.52 280.10 869.15 C 273.48 871.11 265.40 871.21 261.15 864.83 C 256.51 852.97 259.97 840.24 262.43 828.34 C 270.24 791.69 281.92 756.02 294.88 720.92 C 300.59 705.23 307.20 689.82 311.55 673.69 C 318.19 647.91 319.76 619.50 308.19 594.86 C 298.17 572.46 277.95 557.15 258.02 543.96 C 218.08 517.62 179.44 489.13 143.75 457.25 C 137.82 450.80 130.18 446.16 125.22 438.78 C 119.83 433.13 113.94 423.78 119.15 416.14 C 125.28 409.66 134.53 408.19 142.93 406.78 C 182.63 400.67 222.90 401.86 262.93 402.21 C 285.23 403.65 307.66 404.80 330.01 402.97 C 347.46 401.07 365.29 397.10 379.94 386.91 C 386.75 382.56 391.99 376.35 397.75 370.76 C 416.05 346.62 422.14 316.34 431.14 288.08 C 442.10 251.40 454.57 215.07 470.10 180.03 C 475.11 169.06 480.06 158.01 487.20 148.19 C 490.03 145.28 493.24 142.32 497.32 141.38 Z" />
<path fill="#fbe02e" d=" M 498.29 150.31 C 500.60 149.38 502.76 151.48 504.80 152.21 C 512.19 158.42 515.78 167.63 519.98 176.04 C 537.49 216.43 550.13 258.69 561.80 301.09 C 565.98 317.30 570.56 333.46 577.19 348.86 C 584.67 366.50 597.36 382.70 615.00 391.01 C 632.08 399.99 651.73 402.17 670.72 403.33 C 706.43 406.16 742.29 400.65 777.99 403.92 C 801.40 403.78 824.75 405.99 847.93 409.18 C 855.25 411.28 863.46 411.52 869.77 416.22 C 872.50 418.65 875.13 421.86 873.99 425.94 C 871.57 431.46 867.50 436.06 863.28 440.28 C 823.13 477.10 777.65 507.48 732.00 536.99 C 714.98 547.76 698.65 561.36 689.98 579.99 C 679.79 600.17 679.05 623.66 681.31 645.72 C 683.97 665.39 690.15 684.35 697.30 702.80 C 713.38 748.58 728.96 795.03 735.45 843.35 C 737.05 848.59 735.09 853.74 733.80 858.78 C 730.51 862.41 724.87 863.86 720.33 861.59 C 711.82 858.83 704.52 853.49 696.69 849.34 C 660.17 826.58 625.51 800.95 592.32 773.62 C 578.41 762.21 564.21 750.35 547.29 743.71 C 530.00 736.08 510.59 735.35 492.00 736.08 C 471.30 738.18 451.61 746.63 434.93 758.90 C 391.40 792.67 347.63 826.59 299.36 853.42 C 291.22 857.94 282.73 863.54 272.99 863.03 C 269.52 862.69 265.96 859.78 265.99 856.02 C 263.90 850.15 265.22 843.92 266.04 837.99 C 273.74 798.18 286.64 759.65 300.71 721.71 C 305.39 709.08 310.47 696.60 314.60 683.78 C 320.60 667.25 321.80 649.44 322.81 632.08 C 322.13 619.12 320.50 605.87 315.13 593.92 C 309.85 579.83 299.66 568.32 288.66 558.37 C 265.88 540.85 240.99 526.28 218.20 508.80 C 192.64 490.71 168.18 471.01 145.07 449.95 C 137.76 443.62 130.11 436.90 126.01 427.94 C 123.06 418.37 133.59 414.08 140.99 412.98 C 187.13 404.47 234.39 406.92 281.01 407.99 C 301.59 409.77 322.49 409.64 343.01 406.96 C 359.95 404.16 377.51 399.21 390.74 387.73 C 408.11 374.49 416.46 353.27 423.45 333.24 C 440.83 275.57 457.05 216.78 485.08 163.05 C 488.25 157.77 491.94 151.90 498.29 150.31 Z" />
<path fill="#efd42b" d=" M 533.76 155.94 L 534.77 156.03 C 542.53 169.88 547.73 184.97 553.24 199.82 C 559.55 216.63 565.11 233.70 570.15 250.92 C 578.25 275.91 583.55 301.85 593.88 326.08 C 602.54 347.65 619.37 366.31 641.28 374.74 C 652.60 379.42 664.92 380.62 677.00 381.88 C 690.95 382.73 705.07 384.09 718.99 382.06 C 766.64 381.82 814.57 381.48 861.71 389.36 C 875.78 392.38 892.57 394.96 901.17 407.80 C 907.34 418.49 901.87 431.73 894.41 440.37 C 889.25 446.21 884.60 452.53 878.73 457.72 C 842.40 490.80 802.07 519.24 760.78 545.78 C 751.42 552.72 741.62 559.13 733.05 567.05 C 718.02 580.18 706.89 598.61 704.62 618.71 C 699.82 651.66 714.00 682.44 724.23 712.82 C 734.25 741.72 742.86 771.19 749.98 801.00 C 754.65 821.70 759.12 842.72 758.97 864.02 C 757.58 871.41 755.87 879.65 749.68 884.64 C 740.81 891.75 728.12 889.42 718.31 885.63 C 701.29 878.48 685.05 869.55 669.68 859.35 C 642.36 841.76 615.98 822.75 590.71 802.33 C 573.13 788.57 555.94 773.42 534.80 765.36 C 519.85 759.93 503.28 758.40 487.64 761.45 C 462.19 766.46 441.63 783.13 421.69 798.64 C 386.91 825.11 351.16 850.50 313.01 871.97 C 297.69 879.46 282.42 888.78 264.98 890.00 C 253.54 890.08 243.73 880.55 242.53 869.35 C 239.81 846.11 246.85 823.40 251.96 800.99 C 260.32 769.47 270.57 738.58 282.13 708.08 C 288.86 689.84 296.33 671.57 298.09 652.00 C 303.32 622.20 289.73 591.13 266.34 572.61 C 260.20 566.64 252.77 562.25 246.21 556.79 C 209.16 531.71 172.71 505.45 139.06 475.94 C 126.41 464.63 113.41 453.39 103.63 439.34 C 97.76 431.22 93.20 420.18 97.37 410.30 C 104.43 397.69 119.65 393.79 132.93 391.78 C 176.53 384.21 220.95 386.08 265.00 386.10 C 276.91 388.21 289.11 385.73 301.01 387.98 C 317.81 386.92 335.19 386.64 351.01 380.01 C 365.85 374.69 378.26 364.16 387.67 351.69 C 399.92 334.14 406.26 313.41 412.26 293.11 C 412.74 293.06 413.71 292.96 414.19 292.91 C 414.38 293.96 414.54 295.04 414.11 296.06 C 409.47 311.72 404.62 327.49 397.00 342.00 C 390.23 355.73 379.97 367.84 366.77 375.76 C 347.45 387.84 324.09 389.88 301.91 390.83 C 265.93 391.88 229.95 387.01 194.01 389.97 C 175.64 390.06 157.28 391.55 139.10 394.18 C 128.74 396.20 117.79 397.64 108.97 403.96 C 101.07 408.97 97.50 420.43 102.33 428.76 C 109.30 444.63 123.20 455.84 135.28 467.71 C 156.08 486.08 177.69 503.56 200.19 519.82 C 224.34 538.92 251.79 553.63 274.64 574.40 C 289.52 588.42 300.51 607.33 302.04 628.03 C 305.26 648.29 299.87 668.54 293.60 687.66 C 283.42 714.54 273.58 741.57 264.94 768.98 C 256.43 799.08 246.31 829.44 245.92 861.00 C 244.98 867.92 247.98 874.58 252.02 879.98 C 259.13 886.35 269.24 887.07 277.88 883.81 C 305.34 874.61 329.28 857.80 353.91 843.02 C 357.65 841.73 360.65 838.99 364.02 837.02 C 384.22 823.01 404.22 808.68 423.68 793.64 C 441.75 779.96 460.16 764.97 482.70 759.67 C 498.44 755.23 515.43 756.39 530.97 761.08 C 555.94 768.49 575.16 787.10 595.36 802.62 C 614.50 817.63 633.96 832.23 653.98 846.04 C 675.23 859.96 696.67 874.08 720.33 883.61 C 730.03 887.44 742.83 887.81 750.25 879.27 C 754.73 872.41 757.08 864.22 756.05 855.99 C 753.80 817.67 742.42 780.69 731.93 743.98 C 727.83 733.97 726.04 723.23 721.67 713.33 C 713.66 689.26 703.40 665.53 701.04 640.02 C 700.07 623.27 702.14 606.01 709.98 590.98 C 722.32 566.96 746.35 552.56 768.00 538.00 C 799.24 517.73 829.49 495.92 858.17 472.16 C 871.43 460.46 885.31 449.06 895.38 434.35 C 899.29 427.83 901.73 420.22 899.41 412.62 C 896.40 403.93 887.86 399.20 879.70 396.34 C 865.26 392.13 850.36 389.70 835.38 388.52 C 791.78 383.44 747.80 385.35 704.00 385.00 C 686.62 385.32 669.05 385.08 652.07 380.98 C 633.70 377.08 616.43 367.01 605.17 351.82 C 592.23 335.55 586.45 315.17 580.46 295.65 C 567.49 249.31 553.99 202.88 533.88 159.06 C 533.38 158.06 533.58 156.99 533.76 155.94 Z" />
<path fill="#fce12f" d=" M 497.30 170.28 L 501.79 170.13 C 508.43 175.79 511.43 184.16 515.31 191.70 C 531.43 229.29 543.19 268.55 554.02 307.94 C 561.76 336.03 567.88 365.95 587.10 388.91 C 610.61 407.15 641.26 410.55 669.99 412.02 C 700.03 412.73 729.98 410.82 760.01 410.99 C 789.72 412.42 820.03 411.88 848.93 420.09 C 852.20 421.46 856.70 423.66 855.99 427.95 C 853.44 433.90 848.35 438.46 843.26 442.26 C 834.47 451.28 823.89 458.23 814.26 466.27 C 784.11 489.64 752.13 510.49 720.01 531.02 C 706.67 539.91 692.49 548.97 684.03 563.03 C 673.82 582.62 670.31 605.07 670.98 627.00 C 670.21 644.58 674.23 661.84 678.30 678.81 C 693.33 722.16 710.25 765.04 720.02 810.00 C 722.36 821.08 725.04 832.37 723.78 843.76 C 721.12 848.43 715.20 846.93 711.35 844.60 C 664.49 818.09 622.97 783.45 581.30 749.66 C 568.15 738.28 551.74 731.28 534.67 728.41 C 500.84 722.88 462.85 724.67 433.81 744.83 C 415.59 758.93 397.70 773.45 379.20 787.21 C 353.25 805.44 327.89 824.75 300.00 839.99 C 293.49 842.73 287.86 848.62 280.28 847.80 C 275.19 844.69 277.13 838.09 277.16 833.07 C 285.01 791.40 299.93 751.53 315.16 712.09 C 321.91 694.71 328.45 676.99 330.33 658.29 C 333.58 633.63 333.33 607.90 324.57 584.33 C 321.28 574.58 315.43 566.02 308.28 558.72 C 294.71 546.56 279.02 537.18 263.99 527.01 C 224.73 500.22 186.03 472.22 151.22 439.78 C 147.90 436.68 144.86 433.09 143.00 428.95 C 142.94 425.43 146.30 423.50 149.01 422.04 C 165.26 417.32 182.30 416.97 198.99 415.07 C 221.99 415.33 245.08 414.01 267.99 416.00 C 291.21 416.72 314.46 417.69 337.72 416.70 C 357.14 415.15 376.65 411.14 394.00 402.00 C 399.29 398.77 404.78 395.58 408.30 390.30 C 423.39 370.82 429.42 346.47 436.36 323.30 C 446.47 287.80 457.94 252.70 471.28 218.29 C 477.61 203.33 483.31 187.91 492.38 174.34 C 493.63 172.58 495.25 171.06 497.30 170.28 Z" />
<path fill="#f3d82c" d=" M 535.15 170.64 C 538.53 172.60 538.53 177.45 540.42 180.64 C 548.45 200.15 555.44 220.11 561.57 240.28 C 571.08 268.11 576.93 297.12 587.32 324.68 C 592.81 340.25 601.87 354.72 614.24 365.76 C 627.95 377.37 645.46 383.25 662.99 385.97 C 693.53 390.42 724.32 386.00 755.00 386.98 C 792.19 388.07 829.67 388.70 866.38 395.55 C 877.80 398.20 891.42 401.41 896.69 413.28 C 899.49 423.76 893.68 433.48 887.03 441.03 C 876.76 452.76 865.00 463.09 852.94 472.93 C 820.85 499.83 785.95 523.08 750.95 545.97 C 739.08 554.54 726.69 562.94 717.58 574.61 C 705.93 588.04 700.25 605.68 698.17 623.09 C 697.60 643.83 701.65 664.64 708.85 684.07 C 726.63 733.64 743.01 783.96 751.95 835.99 C 752.87 844.95 754.93 854.01 753.14 863.00 C 753.10 871.77 747.29 880.16 738.90 882.89 C 734.68 883.36 730.38 882.92 726.19 882.73 C 703.29 875.35 683.24 861.64 663.06 848.94 C 631.23 827.94 601.36 804.22 571.61 780.42 C 561.41 773.39 551.45 765.61 539.71 761.28 C 518.14 751.93 493.20 752.08 471.35 760.42 C 443.98 771.11 422.79 792.45 399.09 809.12 C 387.24 817.20 375.89 825.99 363.98 833.97 C 359.84 836.02 356.86 839.58 353.91 843.02 C 329.28 857.80 305.34 874.61 277.88 883.81 C 269.24 887.07 259.13 886.35 252.02 879.98 C 247.98 874.58 244.98 867.92 245.92 861.00 C 246.31 829.44 256.43 799.08 264.94 768.98 C 273.58 741.57 283.42 714.54 293.60 687.66 C 299.87 668.54 305.26 648.29 302.04 628.03 C 300.51 607.33 289.52 588.42 274.64 574.40 C 251.79 553.63 224.34 538.92 200.19 519.82 C 177.69 503.56 156.08 486.08 135.28 467.71 C 123.20 455.84 109.30 444.63 102.33 428.76 C 97.50 420.43 101.07 408.97 108.97 403.96 C 117.79 397.64 128.74 396.20 139.10 394.18 C 157.28 391.55 175.64 390.06 194.01 389.97 C 229.95 387.01 265.93 391.88 301.91 390.83 C 301.70 391.38 301.29 392.49 301.08 393.04 C 324.25 392.22 348.73 390.47 368.93 377.90 C 380.22 371.57 388.07 361.02 395.90 351.06 C 396.37 351.38 397.31 352.02 397.77 352.33 C 382.71 381.15 349.13 394.55 317.99 395.05 C 304.64 396.65 291.38 394.34 277.99 394.98 C 254.69 393.38 231.33 394.19 208.00 393.99 C 187.51 393.74 167.03 395.27 146.69 397.69 C 135.88 399.15 124.56 400.35 114.97 405.97 C 110.64 407.47 108.23 411.63 106.59 415.63 C 103.50 426.91 111.25 436.88 118.28 444.73 C 152.54 480.37 192.87 509.37 232.96 538.02 C 245.23 546.34 257.74 554.34 269.33 563.62 C 284.40 574.83 296.39 590.37 302.85 608.05 C 312.40 636.54 305.76 667.39 295.55 694.72 C 278.19 740.59 261.60 787.01 252.37 835.31 C 250.55 845.40 248.50 855.86 250.95 866.04 C 251.90 875.05 261.26 881.28 269.88 880.78 C 275.78 880.02 281.48 878.28 286.90 875.86 C 315.20 862.98 341.45 846.04 366.95 828.37 C 366.42 828.03 365.35 827.34 364.82 826.99 C 384.48 814.63 402.44 799.83 421.16 786.13 C 438.93 771.46 458.21 757.52 480.87 751.75 C 503.14 746.08 527.34 749.08 547.98 759.05 C 571.63 771.25 590.73 790.29 612.01 805.99 C 640.12 826.81 667.96 848.49 698.99 864.86 C 698.79 865.38 698.39 866.41 698.19 866.93 C 705.50 871.78 713.65 875.21 721.89 878.16 C 729.90 880.89 740.24 881.33 745.83 873.82 C 750.34 867.00 751.81 858.40 750.59 850.38 C 746.87 814.49 736.78 779.71 726.68 745.20 C 722.36 734.45 720.32 722.96 715.67 712.33 C 705.70 682.52 691.75 652.17 695.84 619.98 C 696.40 610.28 698.78 600.75 703.02 592.01 C 711.66 572.27 728.56 557.85 745.97 545.95 C 788.46 518.13 830.84 489.69 868.76 455.76 C 877.67 446.59 888.14 438.15 892.87 425.87 C 895.05 421.26 894.05 415.67 891.67 411.33 C 884.44 402.26 872.50 399.55 861.69 397.36 C 813.26 389.25 763.95 389.68 715.00 390.15 C 699.35 392.33 683.55 389.97 667.89 389.24 C 643.49 387.24 618.10 378.20 602.57 358.40 C 589.34 342.50 582.99 322.43 576.94 303.01 C 564.61 259.09 552.35 214.95 534.18 173.02 C 534.42 172.42 534.90 171.23 535.15 170.64 Z" />
<path fill="#fde22f" d=" M 498.21 265.17 C 501.54 265.70 501.11 272.47 502.90 275.04 C 520.70 323.31 533.66 373.29 545.50 423.35 C 547.45 427.31 544.80 437.14 552.99 434.00 C 613.66 433.93 674.34 434.13 735.00 433.90 C 745.99 431.43 756.95 434.55 767.95 435.09 C 769.40 435.02 770.30 436.54 769.98 437.87 C 728.99 468.33 686.28 496.58 642.05 522.10 C 642.00 582.71 641.89 643.34 642.10 703.94 C 647.58 717.23 652.42 730.77 657.90 744.06 C 657.93 744.81 657.98 746.32 658.01 747.08 C 636.35 730.95 616.28 712.76 595.67 695.28 C 535.47 694.66 475.25 695.11 415.05 695.05 C 392.32 712.83 370.76 732.51 346.88 748.94 C 350.24 736.08 357.10 724.30 361.87 711.91 C 362.16 653.61 361.94 595.31 361.98 537.01 C 364.93 531.27 358.23 531.63 356.00 529.00 C 345.02 521.97 333.92 515.11 323.09 507.87 C 344.48 485.33 367.37 463.59 389.18 441.21 L 391.05 440.03 C 407.70 439.89 424.36 440.07 441.02 440.01 C 443.72 440.62 444.99 437.02 444.98 434.99 C 459.25 377.43 476.13 320.12 498.21 265.17 Z" />
<path fill="#b09518" d=" M 686.71 341.35 C 720.76 339.19 754.90 340.19 789.01 340.03 C 801.96 341.19 814.99 340.73 827.93 342.24 C 841.18 343.78 854.84 343.80 867.77 347.16 C 889.67 352.19 912.70 356.97 930.74 371.27 C 944.90 381.18 952.68 398.89 951.93 415.99 C 950.09 433.85 940.47 449.70 929.40 463.38 C 922.36 472.64 913.50 480.26 905.98 489.06 C 901.46 495.19 894.86 499.24 889.26 504.28 C 855.13 533.13 818.15 558.37 780.66 582.60 C 780.24 582.72 779.42 582.96 779.00 583.09 C 780.95 579.72 784.61 577.89 787.59 575.54 C 835.62 542.52 884.60 509.44 924.03 466.02 C 934.91 452.95 945.66 438.40 948.24 421.13 C 950.59 409.05 947.96 396.14 941.05 385.97 C 934.65 375.68 924.15 368.91 913.65 363.39 C 882.84 349.88 848.72 347.28 815.60 344.61 C 783.13 342.10 750.54 343.22 718.00 343.01 C 707.56 342.87 696.97 343.67 686.71 341.35 Z" />
<path fill="#b5991a" d=" M 676.74 342.36 C 680.03 341.90 683.34 340.69 686.71 341.35 C 696.97 343.67 707.56 342.87 718.00 343.01 C 750.54 343.22 783.13 342.10 815.60 344.61 C 848.72 347.28 882.84 349.88 913.65 363.39 C 924.15 368.91 934.65 375.68 941.05 385.97 C 947.96 396.14 950.59 409.05 948.24 421.13 C 945.66 438.40 934.91 452.95 924.03 466.02 C 884.60 509.44 835.62 542.52 787.59 575.54 C 784.61 577.89 780.95 579.72 779.00 583.09 C 775.04 586.01 770.85 589.57 766.03 591.08 C 770.86 584.15 778.52 580.19 784.80 574.81 C 818.40 552.11 851.96 529.18 882.95 502.95 C 903.64 485.38 924.29 466.77 938.00 443.00 C 943.13 434.15 946.26 424.20 946.98 413.99 C 947.49 397.19 937.86 381.11 924.01 371.99 C 902.00 357.10 874.91 353.14 849.11 349.79 C 800.31 343.54 751.08 345.10 702.00 345.02 C 693.55 344.99 684.87 344.95 676.74 342.36 Z" />
<path fill="#bda11c" d=" M 662.76 343.37 C 663.99 342.02 666.02 341.49 667.71 342.30 C 674.78 346.22 683.20 345.80 691.00 346.87 C 742.82 347.41 794.82 345.35 846.41 351.41 C 869.33 354.37 892.80 357.95 913.71 368.30 C 925.81 375.00 936.85 384.87 941.93 398.03 C 945.23 408.67 945.09 420.61 941.12 431.09 C 934.92 448.84 921.34 462.39 909.20 476.20 C 881.56 502.92 851.08 526.69 819.37 548.40 C 802.57 561.04 784.04 571.29 768.14 585.12 C 764.39 588.35 759.90 591.29 758.01 596.08 C 756.87 598.37 754.01 598.80 751.95 599.96 C 756.97 590.33 766.22 584.14 774.40 577.43 C 789.23 565.62 805.65 556.06 821.04 545.02 C 850.78 523.84 879.97 501.65 906.28 476.28 C 918.93 463.33 931.35 449.23 938.32 432.31 C 941.92 423.62 942.93 413.90 941.47 404.63 C 937.96 388.25 924.65 375.95 909.98 369.00 C 886.75 358.01 860.82 355.46 835.59 352.58 C 787.22 347.52 738.55 349.37 690.00 348.91 C 680.81 348.13 671.19 347.48 662.76 343.37 Z" />
<path fill="#b89d1b" d=" M 667.71 342.30 C 670.65 342.10 673.81 341.55 676.74 342.36 C 684.87 344.95 693.55 344.99 702.00 345.02 C 751.08 345.10 800.31 343.54 849.11 349.79 C 874.91 353.14 902.00 357.10 924.01 371.99 C 937.86 381.11 947.49 397.19 946.98 413.99 C 946.26 424.20 943.13 434.15 938.00 443.00 C 924.29 466.77 903.64 485.38 882.95 502.95 C 851.96 529.18 818.40 552.11 784.80 574.81 C 778.52 580.19 770.86 584.15 766.03 591.08 C 763.98 593.46 761.09 595.39 758.01 596.08 C 759.90 591.29 764.39 588.35 768.14 585.12 C 784.04 571.29 802.57 561.04 819.37 548.40 C 851.08 526.69 881.56 502.92 909.20 476.20 C 921.34 462.39 934.92 448.84 941.12 431.09 C 945.09 420.61 945.23 408.67 941.93 398.03 C 936.85 384.87 925.81 375.00 913.71 368.30 C 892.80 357.95 869.33 354.37 846.41 351.41 C 794.82 345.35 742.82 347.41 691.00 346.87 C 683.20 345.80 674.78 346.22 667.71 342.30 Z" />
<path fill="#b09518" d=" M 192.00 343.91 C 208.85 342.39 225.84 342.87 242.72 343.35 C 263.53 344.52 284.45 344.36 305.24 346.27 C 289.26 349.63 273.11 346.39 257.01 346.81 C 238.06 345.12 218.99 346.37 199.99 345.99 C 171.77 347.28 143.33 348.46 115.62 354.56 C 97.64 358.53 79.35 364.80 65.73 377.73 C 59.16 384.39 54.01 392.75 51.99 401.97 C 47.43 420.14 55.15 438.15 64.87 453.17 C 76.69 470.38 92.07 484.56 106.77 499.23 C 129.47 519.75 153.53 538.72 178.18 556.84 C 193.08 567.19 207.66 577.97 222.19 588.84 C 223.33 589.71 224.19 590.89 224.99 592.08 C 185.55 566.68 147.52 538.70 112.07 507.93 C 104.70 501.68 97.19 495.53 90.95 488.10 C 78.06 472.82 63.31 458.56 55.00 440.00 C 46.96 424.68 45.44 405.40 53.95 389.97 C 61.02 375.64 75.04 366.45 89.35 360.39 C 104.36 353.92 120.56 350.81 136.70 348.71 C 139.18 348.18 141.97 348.54 144.19 347.14 C 159.78 344.84 176.07 343.99 192.00 343.91 Z" />
<path fill="#c8ad1f" d=" M 646.68 344.22 C 646.56 342.19 649.53 343.00 650.71 343.29 C 662.64 351.58 678.02 352.07 692.01 353.09 C 702.62 354.25 713.39 354.58 724.00 353.15 C 770.64 352.56 817.49 353.27 863.70 360.32 C 882.47 363.91 902.07 367.73 917.95 379.05 C 930.92 387.57 939.27 403.30 937.01 419.01 C 934.51 435.18 924.62 449.07 914.20 461.19 C 896.34 482.09 874.61 499.17 853.03 516.04 C 840.28 526.47 826.36 535.32 813.21 545.21 C 796.54 556.42 779.45 567.11 763.99 579.98 C 755.43 587.49 746.90 595.56 741.98 606.04 C 741.08 607.45 739.25 608.12 737.78 608.84 C 746.68 586.91 767.49 574.07 785.79 560.79 C 830.42 531.07 874.77 499.90 911.70 460.72 C 920.16 450.68 928.48 439.99 932.46 427.30 C 936.48 415.85 934.74 402.96 928.25 392.75 C 917.02 377.31 897.97 370.20 880.00 366.02 C 817.17 353.15 752.70 356.43 688.99 355.95 C 674.46 354.62 658.96 352.57 646.68 344.22 Z" />
<path fill="#c4a91e" d=" M 650.71 343.29 C 652.35 343.13 654.12 342.66 655.74 343.25 C 663.76 348.06 673.30 349.20 682.40 350.42 C 695.21 351.35 708.19 353.06 721.00 351.15 C 749.49 350.63 777.97 350.87 806.41 352.42 C 837.08 354.55 868.26 356.66 897.67 366.35 C 913.22 371.61 928.49 380.87 935.88 396.09 C 938.94 404.27 940.91 413.34 939.05 422.05 C 934.34 442.46 919.90 458.21 906.20 473.20 C 872.54 506.19 833.91 533.59 795.01 560.01 C 781.79 569.29 767.87 577.88 756.72 589.72 C 752.96 593.67 748.63 597.60 746.85 602.93 C 745.92 604.56 743.86 605.75 741.98 606.04 C 746.90 595.56 755.43 587.49 763.99 579.98 C 779.45 567.11 796.54 556.42 813.21 545.21 C 826.36 535.32 840.28 526.47 853.03 516.04 C 874.61 499.17 896.34 482.09 914.20 461.19 C 924.62 449.07 934.51 435.18 937.01 419.01 C 939.27 403.30 930.92 387.57 917.95 379.05 C 902.07 367.73 882.47 363.91 863.70 360.32 C 817.49 353.27 770.64 352.56 724.00 353.15 C 713.39 354.58 702.62 354.25 692.01 353.09 C 678.02 352.07 662.64 351.58 650.71 343.29 Z" />
<path fill="#c0a51d" d=" M 655.74 343.25 C 657.50 343.28 661.00 343.34 662.76 343.37 C 671.19 347.48 680.81 348.13 690.00 348.91 C 738.55 349.37 787.22 347.52 835.59 352.58 C 860.82 355.46 886.75 358.01 909.98 369.00 C 924.65 375.95 937.96 388.25 941.47 404.63 C 942.93 413.90 941.92 423.62 938.32 432.31 C 931.35 449.23 918.93 463.33 906.28 476.28 C 879.97 501.65 850.78 523.84 821.04 545.02 C 805.65 556.06 789.23 565.62 774.40 577.43 C 766.22 584.14 756.97 590.33 751.95 599.96 C 750.89 601.65 748.56 602.06 746.85 602.93 C 748.63 597.60 752.96 593.67 756.72 589.72 C 767.87 577.88 781.79 569.29 795.01 560.01 C 833.91 533.59 872.54 506.19 906.20 473.20 C 919.90 458.21 934.34 442.46 939.05 422.05 C 940.91 413.34 938.94 404.27 935.88 396.09 C 928.49 380.87 913.22 371.61 897.67 366.35 C 868.26 356.66 837.08 354.55 806.41 352.42 C 777.97 350.87 749.49 350.63 721.00 351.15 C 708.19 353.06 695.21 351.35 682.40 350.42 C 673.30 349.20 663.76 348.06 655.74 343.25 Z" />
<path fill="#cfb421" d=" M 639.63 344.39 C 640.41 344.35 641.95 344.28 642.72 344.24 C 656.98 355.15 675.79 356.34 693.00 357.90 C 706.96 358.02 720.94 358.25 734.90 357.78 C 746.88 355.93 758.97 357.63 770.99 357.99 C 801.05 357.64 831.16 359.67 860.90 364.18 C 880.11 367.80 900.52 371.24 916.40 383.57 C 927.15 391.08 933.44 404.30 932.47 417.38 C 931.48 425.73 928.65 433.96 923.93 440.95 C 910.13 463.20 890.07 480.51 870.18 497.17 C 858.20 506.94 846.10 516.60 833.37 525.39 C 811.70 542.39 787.71 556.16 765.83 572.85 C 753.20 582.86 740.23 594.24 734.98 610.02 L 734.73 610.91 C 734.24 610.91 733.27 610.92 732.78 610.93 C 740.47 587.77 761.92 573.38 781.00 559.99 C 826.26 529.15 872.34 498.24 909.66 457.68 C 919.30 445.54 930.36 432.41 930.06 416.01 C 931.92 398.15 917.55 383.18 901.97 377.09 C 875.80 365.73 846.72 364.07 818.70 361.32 C 789.16 359.56 759.60 358.53 730.00 359.15 C 712.59 361.27 695.02 359.60 677.60 358.47 C 664.20 356.58 650.34 353.13 639.63 344.39 Z" />
<path fill="#ccb121" d=" M 642.72 344.24 C 644.05 343.94 645.37 343.93 646.68 344.22 C 658.96 352.57 674.46 354.62 688.99 355.95 C 752.70 356.43 817.17 353.15 880.00 366.02 C 897.97 370.20 917.02 377.31 928.25 392.75 C 934.74 402.96 936.48 415.85 932.46 427.30 C 928.48 439.99 920.16 450.68 911.70 460.72 C 874.77 499.90 830.42 531.07 785.79 560.79 C 767.49 574.07 746.68 586.91 737.78 608.84 C 737.10 609.78 736.16 610.17 734.98 610.02 C 740.23 594.24 753.20 582.86 765.83 572.85 C 787.71 556.16 811.70 542.39 833.37 525.39 C 846.10 516.60 858.20 506.94 870.18 497.17 C 890.07 480.51 910.13 463.20 923.93 440.95 C 928.65 433.96 931.48 425.73 932.47 417.38 C 933.44 404.30 927.15 391.08 916.40 383.57 C 900.52 371.24 880.11 367.80 860.90 364.18 C 831.16 359.67 801.05 357.64 770.99 357.99 C 758.97 357.63 746.88 355.93 734.90 357.78 C 720.94 358.25 706.96 358.02 693.00 357.90 C 675.79 356.34 656.98 355.15 642.72 344.24 Z" />
<path fill="#b4991a" d=" M 115.62 354.56 C 143.33 348.46 171.77 347.28 199.99 345.99 C 218.99 346.37 238.06 345.12 257.01 346.81 C 273.11 346.39 289.26 349.63 305.24 346.27 C 308.95 345.60 312.60 346.98 316.26 347.37 C 303.44 350.06 290.02 350.78 277.00 349.15 C 245.68 348.54 214.30 346.64 183.00 349.00 C 153.74 350.35 124.03 352.70 96.10 362.15 C 81.58 367.71 66.88 376.06 59.07 390.05 C 52.59 401.13 51.08 414.85 54.77 427.13 C 58.89 442.98 69.17 456.21 79.36 468.66 C 109.39 502.59 145.68 530.19 181.90 557.14 C 199.57 570.10 218.06 581.99 234.76 596.23 C 236.22 597.50 237.40 599.06 238.39 600.72 C 233.52 599.00 228.72 595.73 224.99 592.08 C 224.19 590.89 223.33 589.71 222.19 588.84 C 207.66 577.97 193.08 567.19 178.18 556.84 C 153.53 538.72 129.47 519.75 106.77 499.23 C 92.07 484.56 76.69 470.38 64.87 453.17 C 55.15 438.15 47.43 420.14 51.99 401.97 C 54.01 392.75 59.16 384.39 65.73 377.73 C 79.35 364.80 97.64 358.53 115.62 354.56 Z" />
<path fill="#ad9117" d=" M 95.21 355.12 C 110.91 350.30 127.79 348.25 144.19 347.14 C 141.97 348.54 139.18 348.18 136.70 348.71 C 120.56 350.81 104.36 353.92 89.35 360.39 C 75.04 366.45 61.02 375.64 53.95 389.97 C 45.44 405.40 46.96 424.68 55.00 440.00 C 63.31 458.56 78.06 472.82 90.95 488.10 C 82.54 483.57 77.89 474.40 70.75 468.25 C 67.53 463.60 62.63 460.15 60.16 454.98 C 54.74 443.80 47.81 432.83 46.75 420.12 C 43.35 402.54 51.35 384.11 64.74 372.73 C 73.26 364.30 84.87 360.62 95.21 355.12 Z" />
<path fill="#b89d1b" d=" M 316.26 347.37 C 318.98 346.27 321.31 346.61 323.24 348.38 C 304.37 353.67 284.37 352.04 265.01 351.04 C 242.36 350.93 219.61 348.50 197.00 350.82 C 168.75 351.56 140.27 353.10 112.68 359.63 C 94.54 363.73 76.28 371.49 64.38 386.36 C 56.83 397.21 52.75 411.36 56.55 424.35 C 61.24 444.88 75.54 461.41 89.65 476.33 C 95.89 484.77 104.65 490.64 111.80 498.20 C 134.79 518.78 159.06 537.92 184.19 555.81 C 195.23 564.98 207.95 571.81 218.95 581.03 C 228.70 588.43 239.42 595.61 246.14 605.94 C 243.31 604.67 240.37 603.15 238.39 600.72 C 237.40 599.06 236.22 597.50 234.76 596.23 C 218.06 581.99 199.57 570.10 181.90 557.14 C 145.68 530.19 109.39 502.59 79.36 468.66 C 69.17 456.21 58.89 442.98 54.77 427.13 C 51.08 414.85 52.59 401.13 59.07 390.05 C 66.88 376.06 81.58 367.71 96.10 362.15 C 124.03 352.70 153.74 350.35 183.00 349.00 C 214.30 346.64 245.68 348.54 277.00 349.15 C 290.02 350.78 303.44 350.06 316.26 347.37 Z" />
<path fill="#ac9117" d=" M 867.77 347.16 C 878.75 347.40 889.34 350.69 900.01 352.98 C 903.27 353.80 906.89 354.27 909.80 356.15 C 919.48 361.09 928.98 366.63 937.25 373.75 C 952.50 387.68 957.94 410.69 951.15 430.11 C 949.01 437.49 944.33 443.80 941.96 451.08 C 934.36 462.56 924.06 472.45 914.24 482.24 C 911.37 484.28 909.69 488.56 905.98 489.06 C 913.50 480.26 922.36 472.64 929.40 463.38 C 940.47 449.70 950.09 433.85 951.93 415.99 C 952.68 398.89 944.90 381.18 930.74 371.27 C 912.70 356.97 889.67 352.19 867.77 347.16 Z" />
<path fill="#bda11c" d=" M 323.24 348.38 C 325.90 347.85 328.59 347.82 331.30 348.28 C 313.67 355.92 293.72 353.62 274.99 354.01 C 245.71 352.20 216.32 353.24 186.99 353.03 C 160.81 354.80 134.39 356.24 108.89 362.89 C 93.20 367.47 76.79 374.28 66.69 387.72 C 56.23 400.57 55.60 419.15 62.07 433.98 C 72.25 457.42 91.50 475.03 109.24 492.76 C 129.77 511.76 151.76 529.13 174.18 545.83 C 197.13 563.60 222.34 578.51 243.71 598.27 C 246.84 601.89 250.00 605.55 252.35 609.75 C 250.23 608.76 247.48 607.82 246.14 605.94 C 239.42 595.61 228.70 588.43 218.95 581.03 C 207.95 571.81 195.23 564.98 184.19 555.81 C 159.06 537.92 134.79 518.78 111.80 498.20 C 104.65 490.64 95.89 484.77 89.65 476.33 C 75.54 461.41 61.24 444.88 56.55 424.35 C 52.75 411.36 56.83 397.21 64.38 386.36 C 76.28 371.49 94.54 363.73 112.68 359.63 C 140.27 353.10 168.75 351.56 197.00 350.82 C 219.61 348.50 242.36 350.93 265.01 351.04 C 284.37 352.04 304.37 353.67 323.24 348.38 Z" />
<path fill="#c1a51d" d=" M 331.30 348.28 C 332.70 347.40 334.22 348.41 335.25 349.38 C 310.27 359.80 282.32 355.49 256.01 355.01 C 223.00 355.29 189.91 353.78 157.01 357.16 C 134.28 359.59 110.92 362.18 89.99 371.99 C 77.57 377.83 66.47 387.77 62.13 401.09 C 57.45 414.03 60.98 428.15 67.15 439.91 C 75.89 456.14 88.84 469.37 101.21 482.78 C 118.52 498.54 135.84 514.36 154.63 528.39 C 183.74 552.25 216.59 571.21 244.73 596.27 C 248.43 601.48 254.31 605.61 256.09 611.99 C 254.31 612.37 253.29 610.98 252.35 609.75 C 250.00 605.55 246.84 601.89 243.71 598.27 C 222.34 578.51 197.13 563.60 174.18 545.83 C 151.76 529.13 129.77 511.76 109.24 492.76 C 91.50 475.03 72.25 457.42 62.07 433.98 C 55.60 419.15 56.23 400.57 66.69 387.72 C 76.79 374.28 93.20 367.47 108.89 362.89 C 134.39 356.24 160.81 354.80 186.99 353.03 C 216.32 353.24 245.71 352.20 274.99 354.01 C 293.72 353.62 313.67 355.92 331.30 348.28 Z" />
<path fill="#c4a91e" d=" M 335.25 349.38 C 336.80 348.59 338.62 349.16 340.27 349.25 C 328.99 355.73 315.67 356.64 303.00 357.87 C 272.96 358.76 243.03 355.51 212.99 356.01 C 179.21 357.50 145.04 358.06 111.97 365.96 C 98.35 369.87 84.49 375.05 74.21 385.21 C 67.85 392.11 63.46 400.75 62.05 410.06 C 60.81 424.98 67.65 439.14 75.94 451.07 C 93.33 474.12 114.82 493.66 137.00 512.01 C 163.61 534.03 191.52 554.50 220.06 573.95 C 234.94 585.71 252.42 596.87 260.05 614.98 C 258.59 614.25 256.48 613.84 256.09 611.99 C 254.31 605.61 248.43 601.48 244.73 596.27 C 216.59 571.21 183.74 552.25 154.63 528.39 C 135.84 514.36 118.52 498.54 101.21 482.78 C 88.84 469.37 75.89 456.14 67.15 439.91 C 60.98 428.15 57.45 414.03 62.13 401.09 C 66.47 387.77 77.57 377.83 89.99 371.99 C 110.92 362.18 134.28 359.59 157.01 357.16 C 189.91 353.78 223.00 355.29 256.01 355.01 C 282.32 355.49 310.27 359.80 335.25 349.38 Z" />
<path fill="#c8ac1f" d=" M 340.27 349.25 C 341.85 348.65 343.60 349.14 345.23 349.29 C 336.16 356.25 324.51 357.60 313.61 359.48 C 283.07 361.50 252.55 358.33 222.00 359.00 C 194.64 358.62 167.27 359.79 140.11 363.20 C 121.33 365.93 101.89 369.15 85.64 379.61 C 76.41 385.33 68.45 394.16 65.96 404.96 C 62.36 418.42 66.97 432.41 74.24 443.77 C 87.89 465.18 106.57 482.83 125.68 499.34 C 155.93 526.27 189.31 549.30 222.17 572.86 C 238.20 585.23 256.46 597.33 264.04 617.03 C 262.64 616.75 260.57 616.49 260.05 614.98 C 252.42 596.87 234.94 585.71 220.06 573.95 C 191.52 554.50 163.61 534.03 137.00 512.01 C 114.82 493.66 93.33 474.12 75.94 451.07 C 67.65 439.14 60.81 424.98 62.05 410.06 C 63.46 400.75 67.85 392.11 74.21 385.21 C 84.49 375.05 98.35 369.87 111.97 365.96 C 145.04 358.06 179.21 357.50 212.99 356.01 C 243.03 355.51 272.96 358.76 303.00 357.87 C 315.67 356.64 328.99 355.73 340.27 349.25 Z" />
<path fill="#ccb020" d=" M 345.23 349.29 C 346.25 349.57 347.24 349.91 348.22 350.33 C 332.57 362.03 311.61 361.56 293.01 363.03 C 252.51 361.07 211.82 359.68 171.30 362.30 C 147.77 364.49 123.63 365.91 101.29 374.27 C 90.47 378.73 79.09 384.50 72.97 394.98 C 65.89 405.45 65.82 419.27 70.17 430.85 C 76.75 447.26 88.70 460.64 100.73 473.27 C 139.53 512.59 185.38 543.81 230.00 576.00 C 245.58 587.64 261.67 600.91 268.02 620.01 C 266.57 619.25 264.53 618.80 264.04 617.03 C 256.46 597.33 238.20 585.23 222.17 572.86 C 189.31 549.30 155.93 526.27 125.68 499.34 C 106.57 482.83 87.89 465.18 74.24 443.77 C 66.97 432.41 62.36 418.42 65.96 404.96 C 68.45 394.16 76.41 385.33 85.64 379.61 C 101.89 369.15 121.33 365.93 140.11 363.20 C 167.27 359.79 194.64 358.62 222.00 359.00 C 252.55 358.33 283.07 361.50 313.61 359.48 C 324.51 357.60 336.16 356.25 345.23 349.29 Z" />
<path fill="#cfb421" d=" M 348.22 350.33 C 349.55 349.90 350.92 349.89 352.34 350.31 C 336.33 362.41 315.26 364.36 295.89 364.71 C 262.97 363.02 229.97 362.76 196.99 363.00 C 170.91 364.52 144.63 365.55 119.00 371.03 C 106.93 373.49 95.07 377.79 84.97 384.96 C 75.53 391.59 70.00 402.65 68.99 414.00 C 69.17 432.62 80.76 448.13 92.30 461.72 C 127.05 498.82 167.74 529.63 209.20 558.80 C 223.73 569.85 239.80 579.20 252.28 592.72 C 260.15 600.54 267.79 609.79 270.15 620.91 C 269.62 620.68 268.56 620.24 268.02 620.01 C 261.67 600.91 245.58 587.64 230.00 576.00 C 185.38 543.81 139.53 512.59 100.73 473.27 C 88.70 460.64 76.75 447.26 70.17 430.85 C 65.82 419.27 65.89 405.45 72.97 394.98 C 79.09 384.50 90.47 378.73 101.29 374.27 C 123.63 365.91 147.77 364.49 171.30 362.30 C 211.82 359.68 252.51 361.07 293.01 363.03 C 311.61 361.56 332.57 362.03 348.22 350.33 Z" />
<path fill="#a88d16" d=" M 73.26 362.20 C 79.77 358.22 87.70 356.32 95.21 355.12 C 84.87 360.62 73.26 364.30 64.74 372.73 C 51.35 384.11 43.35 402.54 46.75 420.12 C 47.81 432.83 54.74 443.80 60.16 454.98 C 57.82 454.67 57.48 451.13 55.84 450.11 C 52.82 445.50 49.26 441.08 47.15 435.98 C 44.05 424.42 41.04 412.25 44.42 400.38 C 47.45 387.05 55.83 374.85 67.11 367.16 C 69.32 365.70 71.41 364.09 73.26 362.20 Z" />
<path fill="#a88c16" d=" M 909.80 356.15 C 916.54 356.40 923.02 360.08 929.03 362.97 C 932.88 367.14 937.66 370.31 941.74 374.25 C 951.96 386.15 958.39 401.86 956.73 417.71 C 956.32 423.69 953.41 429.13 952.90 435.07 C 949.76 440.42 947.25 447.31 941.96 451.08 C 944.33 443.80 949.01 437.49 951.15 430.11 C 957.94 410.69 952.50 387.68 937.25 373.75 C 928.98 366.63 919.48 361.09 909.80 356.15 Z" />
<path fill="#a38714" d=" M 56.35 371.25 C 60.76 366.77 67.23 363.64 73.26 362.20 C 71.41 364.09 69.32 365.70 67.11 367.16 C 55.83 374.85 47.45 387.05 44.42 400.38 C 41.04 412.25 44.05 424.42 47.15 435.98 L 46.27 435.76 C 44.23 430.56 40.38 425.79 39.98 420.07 C 39.44 409.79 40.01 399.17 44.77 389.81 C 47.12 382.72 52.72 377.60 56.35 371.25 Z" />
<path fill="#a38714" d=" M 929.03 362.97 C 934.30 364.85 939.60 367.33 943.74 371.19 C 949.69 379.36 955.91 387.87 958.00 397.98 C 960.42 405.14 959.16 412.67 959.89 420.01 C 959.16 425.20 955.99 431.09 952.90 435.07 C 953.41 429.13 956.32 423.69 956.73 417.71 C 958.39 401.86 951.96 386.15 941.74 374.25 C 937.66 370.31 932.88 367.14 929.03 362.97 Z" />
<path fill="#9d8213" d=" M 43.02 383.04 C 46.80 378.62 50.74 373.33 56.35 371.25 C 52.72 377.60 47.12 382.72 44.77 389.81 C 40.01 399.17 39.44 409.79 39.98 420.07 L 39.19 419.80 C 35.88 407.65 34.93 393.55 43.02 383.04 Z" />
<path fill="#9d8113" d=" M 943.74 371.19 C 949.35 373.81 953.68 378.79 957.46 383.60 C 964.39 394.21 964.46 408.02 960.78 419.88 L 959.89 420.01 C 959.16 412.67 960.42 405.14 958.00 397.98 C 955.91 387.87 949.69 379.36 943.74 371.19 Z" />
<path fill="#ceb321" d=" M 731.83 614.86 C 733.28 615.11 734.01 617.44 733.63 618.73 C 728.51 635.14 731.94 652.60 736.35 668.77 C 756.55 727.68 777.72 787.11 784.43 849.40 C 786.11 866.47 786.01 885.25 776.05 900.04 C 770.66 909.33 760.44 915.40 749.93 916.90 C 732.56 920.30 715.67 912.77 700.15 905.82 C 666.96 889.92 636.71 868.55 607.00 847.00 C 583.50 830.23 562.30 810.18 536.98 796.05 C 528.74 792.32 519.83 788.36 510.64 788.66 C 508.78 789.42 507.43 787.13 506.93 785.68 C 511.29 784.42 515.69 786.32 520.03 786.96 C 535.48 790.97 549.09 799.79 561.83 809.14 C 585.11 826.90 607.71 845.61 632.00 862.00 C 655.59 878.36 679.94 893.93 706.13 905.86 C 718.86 911.21 732.53 916.57 746.61 914.50 C 759.04 913.47 770.89 905.56 776.29 894.30 C 781.99 882.47 783.90 868.88 782.28 855.90 C 779.43 816.73 769.14 778.57 757.87 741.10 C 750.43 715.18 740.22 690.17 732.62 664.32 C 728.17 648.27 726.17 630.84 731.83 614.86 Z" />
<path fill="#caaf20" d=" M 736.35 668.77 C 731.94 652.60 728.51 635.14 733.63 618.73 C 734.62 619.61 735.03 620.66 734.87 621.88 C 730.34 636.89 734.27 652.42 737.90 667.11 C 744.81 689.54 753.59 711.36 760.13 733.90 C 771.55 771.21 782.14 809.06 786.03 848.00 C 787.72 861.51 787.90 875.58 783.64 888.68 C 780.23 898.16 774.98 907.76 765.91 912.86 C 753.08 921.39 736.47 920.46 722.22 916.62 C 695.56 907.86 671.48 893.08 648.00 878.00 C 623.91 862.06 600.64 844.93 578.00 826.99 C 563.28 815.79 549.06 803.46 531.90 796.09 C 525.83 793.61 519.66 790.88 512.96 790.96 C 511.84 790.67 511.07 789.91 510.64 788.66 C 519.83 788.36 528.74 792.32 536.98 796.05 C 562.30 810.18 583.50 830.23 607.00 847.00 C 636.71 868.55 666.96 889.92 700.15 905.82 C 715.67 912.77 732.56 920.30 749.93 916.90 C 760.44 915.40 770.66 909.33 776.05 900.04 C 786.01 885.25 786.11 866.47 784.43 849.40 C 777.72 787.11 756.55 727.68 736.35 668.77 Z" />
<path fill="#c7ab1f" d=" M 734.87 621.88 C 736.53 622.33 736.65 625.20 736.60 626.74 C 732.25 643.88 738.63 661.28 743.37 677.68 C 753.07 705.16 762.51 732.76 770.25 760.87 C 779.08 793.32 787.30 826.27 789.04 859.99 C 789.85 876.83 786.91 895.31 775.30 908.29 C 768.56 916.18 758.39 920.14 748.32 921.39 C 734.97 923.53 722.04 918.75 709.70 914.30 C 673.26 898.99 640.81 876.01 608.83 853.15 C 601.18 847.74 594.28 841.18 585.80 837.08 C 566.38 823.09 548.72 805.25 525.67 797.35 C 523.51 796.56 521.27 796.06 518.99 795.83 C 516.38 795.26 514.23 793.23 512.96 790.96 C 519.66 790.88 525.83 793.61 531.90 796.09 C 549.06 803.46 563.28 815.79 578.00 826.99 C 600.64 844.93 623.91 862.06 648.00 878.00 C 671.48 893.08 695.56 907.86 722.22 916.62 C 736.47 920.46 753.08 921.39 765.91 912.86 C 774.98 907.76 780.23 898.16 783.64 888.68 C 787.90 875.58 787.72 861.51 786.03 848.00 C 782.14 809.06 771.55 771.21 760.13 733.90 C 753.59 711.36 744.81 689.54 737.90 667.11 C 734.27 652.42 730.34 636.89 734.87 621.88 Z" />
<path fill="#cdb221" d=" M 269.34 628.74 C 269.00 627.43 269.70 625.23 271.10 624.87 C 277.08 642.48 272.23 661.43 267.58 678.76 C 254.91 713.90 241.86 748.93 231.83 784.94 C 225.12 811.20 217.97 837.73 217.26 864.99 C 218.24 873.73 218.07 882.89 222.01 890.98 C 226.46 901.76 235.39 911.21 247.02 913.93 C 264.74 919.17 282.74 911.81 298.96 904.89 C 352.51 879.96 399.91 844.20 446.89 808.85 C 463.40 797.24 482.04 785.41 502.99 785.81 C 502.84 787.68 500.54 788.35 499.03 788.87 C 474.98 790.90 455.06 806.51 436.40 820.44 C 428.11 827.17 418.92 832.79 410.85 839.76 C 400.57 845.06 391.47 852.36 382.05 859.03 C 355.02 876.97 327.54 894.55 297.84 907.81 C 287.92 911.88 277.90 916.12 267.12 917.26 C 253.81 919.95 239.16 916.04 229.19 906.80 C 217.42 894.69 215.12 877.11 215.04 860.99 C 217.56 826.48 227.20 793.03 236.94 759.98 C 245.48 732.24 255.94 705.13 265.59 677.77 C 269.80 662.03 274.00 644.79 269.34 628.74 Z" />
<path fill="#c3a81e" d=" M 743.37 677.68 C 738.63 661.28 732.25 643.88 736.60 626.74 C 737.56 627.62 738.04 628.70 738.04 629.97 C 735.46 645.94 740.87 661.74 745.13 676.95 C 764.84 733.35 784.13 790.68 790.43 850.40 C 792.33 868.63 791.25 888.33 781.20 904.22 C 772.35 918.24 755.17 925.16 738.99 924.01 C 727.92 922.77 717.06 919.69 706.91 915.12 C 664.88 896.61 627.62 869.31 590.92 842.09 C 589.09 840.57 586.95 839.22 585.80 837.08 C 594.28 841.18 601.18 847.74 608.83 853.15 C 640.81 876.01 673.26 898.99 709.70 914.30 C 722.04 918.75 734.97 923.53 748.32 921.39 C 758.39 920.14 768.56 916.18 775.30 908.29 C 786.91 895.31 789.85 876.83 789.04 859.99 C 787.30 826.27 779.08 793.32 770.25 760.87 C 762.51 732.76 753.07 705.16 743.37 677.68 Z" />
<path fill="#caaf20" d=" M 269.34 628.74 C 274.00 644.79 269.80 662.03 265.59 677.77 C 255.94 705.13 245.48 732.24 236.94 759.98 C 227.20 793.03 217.56 826.48 215.04 860.99 C 215.12 877.11 217.42 894.69 229.19 906.80 C 239.16 916.04 253.81 919.95 267.12 917.26 C 277.90 916.12 287.92 911.88 297.84 907.81 C 327.54 894.55 355.02 876.97 382.05 859.03 C 391.47 852.36 400.57 845.06 410.85 839.76 C 406.53 844.26 401.21 847.67 395.96 850.99 C 371.15 869.08 345.09 885.52 318.01 900.01 C 301.25 908.23 284.21 917.39 265.32 919.36 C 248.30 922.51 229.33 914.45 221.06 898.96 C 211.40 881.46 212.57 860.45 215.33 841.30 C 224.25 786.22 243.41 733.59 262.44 681.36 C 267.28 665.52 271.92 648.45 268.13 631.86 C 267.99 630.65 268.39 629.61 269.34 628.74 Z" />
<path fill="#c0a41d" d=" M 738.04 629.97 C 739.72 630.61 739.40 633.36 739.95 634.93 C 738.24 655.53 747.12 674.71 753.13 693.90 C 763.65 722.76 772.26 752.27 780.03 781.99 C 786.19 807.62 791.71 833.60 793.03 859.99 C 794.24 879.93 789.79 902.35 773.77 915.77 C 763.32 924.25 749.32 927.26 736.11 925.80 C 720.18 923.57 705.28 917.11 690.99 910.03 C 649.45 888.60 611.74 860.61 574.84 832.12 C 562.93 822.92 551.42 812.99 538.01 806.00 C 533.15 803.65 528.45 800.63 523.01 799.86 C 521.22 799.30 519.73 797.51 518.99 795.83 C 521.27 796.06 523.51 796.56 525.67 797.35 C 548.72 805.25 566.38 823.09 585.80 837.08 C 586.95 839.22 589.09 840.57 590.92 842.09 C 627.62 869.31 664.88 896.61 706.91 915.12 C 717.06 919.69 727.92 922.77 738.99 924.01 C 755.17 925.16 772.35 918.24 781.20 904.22 C 791.25 888.33 792.33 868.63 790.43 850.40 C 784.13 790.68 764.84 733.35 745.13 676.95 C 740.87 661.74 735.46 645.94 738.04 629.97 Z" />
<path fill="#c7ac1f" d=" M 266.37 635.73 C 266.00 634.40 266.71 632.21 268.13 631.86 C 271.92 648.45 267.28 665.52 262.44 681.36 C 243.41 733.59 224.25 786.22 215.33 841.30 C 212.57 860.45 211.40 881.46 221.06 898.96 C 229.33 914.45 248.30 922.51 265.32 919.36 C 284.21 917.39 301.25 908.23 318.01 900.01 C 345.09 885.52 371.15 869.08 395.96 850.99 C 401.21 847.67 406.53 844.26 410.85 839.76 C 418.92 832.79 428.11 827.17 436.40 820.44 C 455.06 806.51 474.98 790.90 499.03 788.87 C 498.01 790.71 496.42 793.02 494.08 792.98 C 472.89 795.79 455.64 809.68 439.00 822.00 C 404.40 848.32 368.65 873.23 331.04 895.08 C 315.24 903.86 299.00 912.00 281.82 917.74 C 266.70 922.15 249.20 924.36 235.05 915.93 C 222.81 909.73 215.96 896.60 213.41 883.62 C 208.99 859.42 214.15 834.94 219.36 811.32 C 227.85 773.82 240.31 737.37 253.41 701.27 C 258.72 687.30 264.12 673.17 266.34 658.31 C 267.19 650.84 269.05 643.03 266.37 635.73 Z" />
<path fill="#bca11c" d=" M 739.95 634.93 C 741.69 635.55 741.42 638.33 741.92 639.93 C 741.80 656.83 748.21 672.85 753.43 688.65 C 766.38 724.44 777.19 761.02 785.91 798.08 C 791.44 823.95 796.44 850.32 794.82 876.90 C 792.69 895.11 784.37 914.62 767.01 923.00 C 755.07 928.20 741.28 929.77 728.60 926.51 C 709.12 921.99 691.17 912.81 673.77 903.22 C 646.92 887.25 620.91 869.87 596.06 850.94 C 573.63 834.95 553.68 814.71 527.98 803.90 C 526.27 802.73 523.64 801.94 523.01 799.86 C 528.45 800.63 533.15 803.65 538.01 806.00 C 551.42 812.99 562.93 822.92 574.84 832.12 C 611.74 860.61 649.45 888.60 690.99 910.03 C 705.28 917.11 720.18 923.57 736.11 925.80 C 749.32 927.26 763.32 924.25 773.77 915.77 C 789.79 902.35 794.24 879.93 793.03 859.99 C 791.71 833.60 786.19 807.62 780.03 781.99 C 772.26 752.27 763.65 722.76 753.13 693.90 C 747.12 674.71 738.24 655.53 739.95 634.93 Z" />
<path fill="#c3a81e" d=" M 266.37 635.73 C 269.05 643.03 267.19 650.84 266.34 658.31 C 264.12 673.17 258.72 687.30 253.41 701.27 C 240.31 737.37 227.85 773.82 219.36 811.32 C 214.15 834.94 208.99 859.42 213.41 883.62 C 215.96 896.60 222.81 909.73 235.05 915.93 C 249.20 924.36 266.70 922.15 281.82 917.74 C 299.00 912.00 315.24 903.86 331.04 895.08 C 368.65 873.23 404.40 848.32 439.00 822.00 C 455.64 809.68 472.89 795.79 494.08 792.98 C 493.01 794.48 491.83 796.31 490.05 796.95 C 481.46 798.11 473.85 802.33 466.36 806.40 C 440.81 821.98 418.43 842.11 393.37 858.40 C 373.69 872.75 352.74 885.20 331.95 897.85 C 324.33 899.80 318.16 904.96 311.01 908.02 C 292.45 916.41 272.99 925.32 252.09 923.85 C 237.43 922.18 223.32 913.77 216.79 900.21 C 208.85 885.22 209.41 867.74 210.28 851.30 C 217.56 791.46 239.50 734.84 259.43 678.35 C 263.67 665.65 265.79 652.31 264.99 638.92 C 264.98 637.67 265.44 636.61 266.37 635.73 Z" />
<path fill="#c0a51d" d=" M 263.33 643.61 C 262.69 641.99 263.49 639.69 264.99 638.92 C 265.79 652.31 263.67 665.65 259.43 678.35 C 239.50 734.84 217.56 791.46 210.28 851.30 C 209.41 867.74 208.85 885.22 216.79 900.21 C 223.32 913.77 237.43 922.18 252.09 923.85 C 272.99 925.32 292.45 916.41 311.01 908.02 C 318.16 904.96 324.33 899.80 331.95 897.85 C 327.45 902.12 321.36 904.07 316.00 907.01 C 296.76 916.91 276.10 925.91 254.10 925.85 C 241.83 924.90 229.62 919.89 221.62 910.35 C 211.02 898.60 208.24 882.28 207.96 867.01 C 207.47 853.57 210.01 840.29 212.22 827.11 C 221.47 780.07 237.00 734.60 253.72 689.78 C 259.37 675.12 263.86 659.37 263.33 643.61 Z" />
<path fill="#b89c1b" d=" M 741.92 639.93 C 743.88 641.59 744.12 645.32 744.88 647.94 C 747.06 666.57 754.47 684.08 760.41 701.75 C 772.99 738.62 783.95 776.12 791.58 814.37 C 794.45 830.10 796.88 845.98 797.28 862.00 C 798.49 878.38 794.75 895.16 786.19 909.22 C 775.51 925.46 754.77 932.73 735.97 930.15 C 722.68 928.44 710.02 923.77 698.00 917.97 C 647.87 894.07 603.80 859.71 560.00 826.00 C 552.05 820.08 544.27 813.63 534.99 809.89 C 532.34 808.37 529.38 806.75 527.98 803.90 C 553.68 814.71 573.63 834.95 596.06 850.94 C 620.91 869.87 646.92 887.25 673.77 903.22 C 691.17 912.81 709.12 921.99 728.60 926.51 C 741.28 929.77 755.07 928.20 767.01 923.00 C 784.37 914.62 792.69 895.11 794.82 876.90 C 796.44 850.32 791.44 823.95 785.91 798.08 C 777.19 761.02 766.38 724.44 753.43 688.65 C 748.21 672.85 741.80 656.83 741.92 639.93 Z" />
<path fill="#bea21c" d=" M 261.05 647.92 C 261.17 646.34 261.73 644.23 263.33 643.61 C 263.86 659.37 259.37 675.12 253.72 689.78 C 237.00 734.60 221.47 780.07 212.22 827.11 C 210.01 840.29 207.47 853.57 207.96 867.01 C 208.24 882.28 211.02 898.60 221.62 910.35 C 229.62 919.89 241.83 924.90 254.10 925.85 C 276.10 925.91 296.76 916.91 316.00 907.01 C 321.36 904.07 327.45 902.12 331.95 897.85 C 352.74 885.20 373.69 872.75 393.37 858.40 C 418.43 842.11 440.81 821.98 466.36 806.40 C 473.85 802.33 481.46 798.11 490.05 796.95 C 487.98 798.48 486.31 800.78 483.99 801.83 C 475.93 803.88 468.50 807.98 461.66 812.63 C 446.10 822.48 432.14 834.56 417.00 845.00 C 388.41 865.92 358.95 885.72 328.00 903.00 C 304.54 914.86 280.10 928.33 253.01 927.92 C 237.16 926.36 221.09 917.80 214.03 902.99 C 201.87 879.56 205.85 852.08 210.21 827.10 C 216.76 794.74 226.02 762.98 236.60 731.73 C 243.31 711.02 252.11 691.03 258.09 670.09 C 260.14 662.88 261.27 655.42 261.05 647.92 Z" />
<path fill="#b99e1b" d=" M 258.27 655.64 C 258.18 653.01 259.46 649.73 261.05 647.92 C 261.27 655.42 260.14 662.88 258.09 670.09 C 252.11 691.03 243.31 711.02 236.60 731.73 C 226.02 762.98 216.76 794.74 210.21 827.10 C 205.85 852.08 201.87 879.56 214.03 902.99 C 221.09 917.80 237.16 926.36 253.01 927.92 C 280.10 928.33 304.54 914.86 328.00 903.00 C 358.95 885.72 388.41 865.92 417.00 845.00 C 432.14 834.56 446.10 822.48 461.66 812.63 C 468.50 807.98 475.93 803.88 483.99 801.83 C 482.48 804.21 479.67 805.90 477.10 807.02 C 468.12 809.82 460.63 815.70 453.04 821.03 C 407.53 854.63 361.92 888.88 311.01 914.01 C 296.10 920.80 280.91 927.72 264.40 929.50 C 244.06 932.64 221.13 923.13 212.01 904.01 C 200.86 882.15 203.09 856.55 207.18 833.10 C 214.27 793.08 226.66 754.26 239.95 715.94 C 245.50 701.03 251.03 686.11 255.83 670.94 C 256.86 665.89 258.37 660.80 258.27 655.64 Z" />
<path fill="#b49819" d=" M 744.88 647.94 L 745.70 648.24 C 747.54 654.55 750.83 660.41 752.10 666.88 C 752.88 675.81 756.83 683.87 759.61 692.25 C 777.83 746.78 795.63 802.31 799.88 860.00 C 800.93 881.16 796.27 904.30 780.75 919.72 C 773.22 925.63 764.77 931.08 754.99 931.98 C 735.62 935.68 716.44 928.87 699.01 920.96 C 652.76 899.44 611.66 868.54 571.36 837.61 C 564.71 832.61 558.40 826.62 550.93 822.95 C 547.28 822.02 545.48 818.37 542.31 816.62 C 539.84 814.47 536.45 813.00 534.99 809.89 C 544.27 813.63 552.05 820.08 560.00 826.00 C 603.80 859.71 647.87 894.07 698.00 917.97 C 710.02 923.77 722.68 928.44 735.97 930.15 C 754.77 932.73 775.51 925.46 786.19 909.22 C 794.75 895.16 798.49 878.38 797.28 862.00 C 796.88 845.98 794.45 830.10 791.58 814.37 C 783.95 776.12 772.99 738.62 760.41 701.75 C 754.47 684.08 747.06 666.57 744.88 647.94 Z" />
<path fill="#b59a1a" d=" M 253.00 667.93 C 253.83 663.65 255.41 658.87 258.27 655.64 C 258.37 660.80 256.86 665.89 255.83 670.94 C 251.03 686.11 245.50 701.03 239.95 715.94 C 226.66 754.26 214.27 793.08 207.18 833.10 C 203.09 856.55 200.86 882.15 212.01 904.01 C 221.13 923.13 244.06 932.64 264.40 929.50 C 280.91 927.72 296.10 920.80 311.01 914.01 C 361.92 888.88 407.53 854.63 453.04 821.03 C 460.63 815.70 468.12 809.82 477.10 807.02 C 474.14 810.74 470.33 813.89 466.10 816.06 C 455.67 820.73 447.44 828.78 438.00 835.00 C 408.32 857.38 377.77 878.65 346.00 897.96 C 327.24 908.79 307.95 918.89 287.66 926.58 C 272.13 931.50 254.97 935.54 239.04 929.89 C 227.29 926.73 216.95 918.60 211.09 907.94 C 203.22 894.46 201.07 878.36 201.16 863.01 C 203.03 830.16 211.53 798.14 220.67 766.67 C 229.21 738.00 239.43 709.87 249.68 681.77 C 251.19 677.27 252.56 672.66 253.00 667.93 Z" />
<path fill="#af9418" d=" M 752.10 666.88 C 756.62 675.29 758.71 685.29 762.60 694.22 C 777.35 738.01 791.10 782.35 799.23 827.93 C 800.38 838.14 803.37 848.35 802.75 858.67 C 802.26 872.92 801.63 887.63 796.03 901.01 C 789.53 918.50 773.35 932.28 754.64 934.60 C 745.12 935.29 735.33 935.71 726.06 933.01 C 717.08 931.20 708.74 927.22 699.94 924.90 C 682.26 917.74 666.27 906.91 650.07 896.90 C 616.30 874.90 583.95 850.74 552.74 825.26 C 551.99 824.59 551.39 823.82 550.93 822.95 C 558.40 826.62 564.71 832.61 571.36 837.61 C 611.66 868.54 652.76 899.44 699.01 920.96 C 716.44 928.87 735.62 935.68 754.99 931.98 C 764.77 931.08 773.22 925.63 780.75 919.72 C 796.27 904.30 800.93 881.16 799.88 860.00 C 795.63 802.31 777.83 746.78 759.61 692.25 C 756.83 683.87 752.88 675.81 752.10 666.88 Z" />
<path fill="#b09518" d=" M 245.84 684.91 C 248.51 679.44 249.52 672.67 253.00 667.93 C 252.56 672.66 251.19 677.27 249.68 681.77 C 239.43 709.87 229.21 738.00 220.67 766.67 C 211.53 798.14 203.03 830.16 201.16 863.01 C 201.07 878.36 203.22 894.46 211.09 907.94 C 216.95 918.60 227.29 926.73 239.04 929.89 C 254.97 935.54 272.13 931.50 287.66 926.58 C 307.95 918.89 327.24 908.79 346.00 897.96 C 377.77 878.65 408.32 857.38 438.00 835.00 C 447.44 828.78 455.67 820.73 466.10 816.06 C 454.90 826.95 441.43 835.42 429.17 845.16 C 403.10 864.39 376.71 883.30 348.78 899.78 C 341.69 904.08 334.77 908.86 327.08 912.03 C 302.18 923.07 276.55 937.26 248.29 934.70 C 229.10 932.58 211.44 919.38 204.85 901.10 C 195.22 876.74 199.60 850.14 202.96 824.99 C 203.70 814.08 207.95 803.69 209.95 792.99 C 220.07 756.39 232.18 720.34 245.84 684.91 Z" />
<path fill="#ac9117" d=" M 202.10 825.10 L 202.96 824.99 C 199.60 850.14 195.22 876.74 204.85 901.10 C 211.44 919.38 229.10 932.58 248.29 934.70 C 276.55 937.26 302.18 923.07 327.08 912.03 C 325.52 914.72 321.53 915.26 319.01 917.02 C 306.05 923.84 292.70 929.92 278.93 934.90 C 277.35 935.41 275.77 936.02 274.08 936.00 C 265.06 936.45 256.04 937.51 247.00 936.93 C 229.25 934.59 212.17 923.86 204.98 907.01 C 199.64 897.78 198.84 886.90 196.27 876.75 C 195.26 859.37 199.58 842.21 202.10 825.10 Z" />
<path fill="#aa8f17" d=" M 796.03 901.01 C 801.63 887.63 802.26 872.92 802.75 858.67 L 803.78 858.99 C 804.05 869.22 804.29 879.54 803.74 889.75 C 799.36 904.30 792.53 918.74 780.08 928.09 C 767.85 937.35 751.82 939.10 736.96 939.03 C 734.50 939.09 731.87 938.83 729.75 937.45 C 719.70 934.15 709.90 930.13 700.30 925.70 L 699.94 924.90 C 708.74 927.22 717.08 931.20 726.06 933.01 C 735.33 935.71 745.12 935.29 754.64 934.60 C 773.35 932.28 789.53 918.50 796.03 901.01 Z" />
<path fill="#a88c16" d=" M 196.27 876.75 C 198.84 886.90 199.64 897.78 204.98 907.01 C 212.17 923.86 229.25 934.59 247.00 936.93 C 256.04 937.51 265.06 936.45 274.08 936.00 C 270.14 938.76 264.06 939.70 259.02 940.05 C 242.62 941.18 225.81 935.47 213.73 924.26 C 204.92 915.72 200.40 904.05 196.26 892.74 C 195.76 887.44 195.77 882.06 196.27 876.75 Z" />
<path fill="#a48815" d=" M 780.08 928.09 C 792.53 918.74 799.36 904.30 803.74 889.75 C 804.56 896.49 802.89 903.38 800.71 909.68 C 791.47 926.83 774.54 939.50 755.08 942.12 C 748.96 942.60 743.11 940.74 737.15 939.83 L 736.96 939.03 C 751.82 939.10 767.85 937.35 780.08 928.09 Z" />
<path fill="#a38714" d=" M 196.26 892.74 C 200.40 904.05 204.92 915.72 213.73 924.26 C 225.81 935.47 242.62 941.18 259.02 940.05 L 258.93 940.96 C 253.34 941.07 247.72 942.72 242.26 942.74 C 228.34 938.78 214.74 931.91 205.96 920.05 C 203.86 917.42 202.95 913.79 199.97 912.00 C 197.91 909.97 198.35 906.16 197.49 903.66 C 197.89 899.89 195.49 896.46 196.26 892.74 Z" />
<path fill="#9d8213" d=" M 755.08 942.12 C 774.54 939.50 791.47 926.83 800.71 909.68 C 799.28 919.46 793.66 928.76 786.24 935.23 C 777.06 941.34 765.84 943.32 754.95 943.05 L 755.08 942.12 Z" />
<path fill="#9d8113" d=" M 199.97 912.00 C 202.95 913.79 203.86 917.42 205.96 920.05 C 214.74 931.91 228.34 938.78 242.26 942.74 C 230.52 943.36 217.71 940.44 209.70 931.29 C 205.33 925.70 200.33 919.37 199.97 912.00 Z" />
</svg>
